                                                                        S0000001
,,31HOpen CASCADE IGES processor 7.6,13HFilename.iges,                  G0000001
16HOpen CASCADE 7.6,31HOpen CASCADE IGES processor 7.6,32,308,15,308,15,G0000002
,1.,2,2HMM,1,0.01,15H20231123.184159,1E-07,3.302,,,11,0,                G0000003
15H20231123.184159,;                                                    G0000004
     402       1       0       0       0       0       0       000000000D0000001
     402       0       0       1       1                               0D0000002
     186       2       0       0       0       0       0       000020000D0000003
     186       0       0       1       0                               0D0000004
     514       3       0       0       0       0       0       000010000D0000005
     514       0       0       1       1                               0D0000006
     510       4       0       0       0       0       0       000010000D0000007
     510       0       0       1       1                               0D0000008
     190       5       0       0       0       0       0       000010000D0000009
     190       0       0       1       1                               0D0000010
     116       6       0       0       0       0       0       000010400D0000011
     116       0       0       1       0                               0D0000012
     123       7       0       0       0       0       0       000010200D0000013
     123       0       0       1       0                               0D0000014
     123       8       0       0       0       0       0       000010200D0000015
     123       0       0       1       0                               0D0000016
     508       9       0       0       0       0       0       000010000D0000017
     508       0       0       1       1                               0D0000018
     504      10       0       0       0       0       0       000010001D0000019
     504       0       0       4       1                               0D0000020
     110      14       0       0       0       0       0       000010000D0000021
     110       0       0       1       0                               0D0000022
     502      15       0       0       0       0       0       000010000D0000023
     502       0       0       6       1                               0D0000024
     110      21       0       0       0       0       0       000010000D0000025
     110       0       0       1       0                               0D0000026
     110      22       0       0       0       0       0       000010000D0000027
     110       0       0       1       0                               0D0000028
     110      23       0       0       0       0       0       000010000D0000029
     110       0       0       1       0                               0D0000030
     110      24       0       0       0       0       0       000010000D0000031
     110       0       0       1       0                               0D0000032
     110      25       0       0       0       0       0       000010000D0000033
     110       0       0       1       0                               0D0000034
     110      26       0       0       0       0       0       000010000D0000035
     110       0       0       1       0                               0D0000036
     110      27       0       0       0       0       0       000010000D0000037
     110       0       0       1       0                               0D0000038
     110      28       0       0       0       0       0       000010000D0000039
     110       0       0       1       0                               0D0000040
     110      29       0       0       0       0       0       000010000D0000041
     110       0       0       1       0                               0D0000042
     110      30       0       0       0       0       0       000010000D0000043
     110       0       0       1       0                               0D0000044
     100      31       0       0       0       0      47       000010000D0000045
     100       0       0       1       0                               0D0000046
     124      32       0       0       0       0       0       000000000D0000047
     124       0       0       3       0                               0D0000048
     100      35       0       0       0       0      51       000010000D0000049
     100       0       0       1       0                               0D0000050
     124      36       0       0       0       0       0       000000000D0000051
     124       0       0       3       0                               0D0000052
     110      39       0       0       0       0       0       000010000D0000053
     110       0       0       1       0                               0D0000054
     110      40       0       0       0       0       0       000010000D0000055
     110       0       0       2       0                               0D0000056
     100      42       0       0       0       0      59       000010000D0000057
     100       0       0       1       0                               0D0000058
     124      43       0       0       0       0       0       000000000D0000059
     124       0       0       3       0                               0D0000060
     110      46       0       0       0       0       0       000010000D0000061
     110       0       0       2       0                               0D0000062
     100      48       0       0       0       0      65       000010000D0000063
     100       0       0       1       0                               0D0000064
     124      49       0       0       0       0       0       000000000D0000065
     124       0       0       3       0                               0D0000066
     510      52       0       0       0       0       0       000010000D0000067
     510       0       0       1       1                               0D0000068
     190      53       0       0       0       0       0       000010000D0000069
     190       0       0       1       1                               0D0000070
     116      54       0       0       0       0       0       000010400D0000071
     116       0       0       1       0                               0D0000072
     123      55       0       0       0       0       0       000010200D0000073
     123       0       0       1       0                               0D0000074
     123      56       0       0       0       0       0       000010200D0000075
     123       0       0       1       0                               0D0000076
     508      57       0       0       0       0       0       000010000D0000077
     508       0       0       1       1                               0D0000078
     510      58       0       0       0       0       0       000010000D0000079
     510       0       0       1       1                               0D0000080
     190      59       0       0       0       0       0       000010000D0000081
     190       0       0       1       1                               0D0000082
     116      60       0       0       0       0       0       000010400D0000083
     116       0       0       1       0                               0D0000084
     123      61       0       0       0       0       0       000010200D0000085
     123       0       0       1       0                               0D0000086
     123      62       0       0       0       0       0       000010200D0000087
     123       0       0       1       0                               0D0000088
     508      63       0       0       0       0       0       000010000D0000089
     508       0       0       1       1                               0D0000090
     510      64       0       0       0       0       0       000010000D0000091
     510       0       0       1       1                               0D0000092
     190      65       0       0       0       0       0       000010000D0000093
     190       0       0       1       1                               0D0000094
     116      66       0       0       0       0       0       000010400D0000095
     116       0       0       1       0                               0D0000096
     123      67       0       0       0       0       0       000010200D0000097
     123       0       0       1       0                               0D0000098
     123      68       0       0       0       0       0       000010200D0000099
     123       0       0       1       0                               0D0000100
     508      69       0       0       0       0       0       000010000D0000101
     508       0       0       1       1                               0D0000102
     508      70       0       0       0       0       0       000010000D0000103
     508       0       0       1       1                               0D0000104
     508      71       0       0       0       0       0       000010000D0000105
     508       0       0       1       1                               0D0000106
     510      72       0       0       0       0       0       000010000D0000107
     510       0       0       1       1                               0D0000108
     190      73       0       0       0       0       0       000010000D0000109
     190       0       0       1       1                               0D0000110
     116      74       0       0       0       0       0       000010400D0000111
     116       0       0       1       0                               0D0000112
     123      75       0       0       0       0       0       000010200D0000113
     123       0       0       1       0                               0D0000114
     123      76       0       0       0       0       0       000010200D0000115
     123       0       0       1       0                               0D0000116
     508      77       0       0       0       0       0       000010000D0000117
     508       0       0       1       1                               0D0000118
     510      78       0       0       0       0       0       000010000D0000119
     510       0       0       1       1                               0D0000120
     190      79       0       0       0       0       0       000010000D0000121
     190       0       0       1       1                               0D0000122
     116      80       0       0       0       0       0       000010400D0000123
     116       0       0       1       0                               0D0000124
     123      81       0       0       0       0       0       000010200D0000125
     123       0       0       1       0                               0D0000126
     123      82       0       0       0       0       0       000010200D0000127
     123       0       0       1       0                               0D0000128
     508      83       0       0       0       0       0       000010000D0000129
     508       0       0       1       1                               0D0000130
     510      84       0       0       0       0       0       000010000D0000131
     510       0       0       1       1                               0D0000132
     192      85       0       0       0       0       0       000010000D0000133
     192       0       0       1       1                               0D0000134
     116      86       0       0       0       0       0       000010400D0000135
     116       0       0       1       0                               0D0000136
     123      87       0       0       0       0       0       000010200D0000137
     123       0       0       1       0                               0D0000138
     123      88       0       0       0       0       0       000010200D0000139
     123       0       0       1       0                               0D0000140
     508      89       0       0       0       0       0       000010000D0000141
     508       0       0       2       1                               0D0000142
     110      91       0       0       0       0       0       000010000D0000143
     110       0       0       1       0                               0D0000144
     110      92       0       0       0       0       0       000010000D0000145
     110       0       0       1       0                               0D0000146
     110      93       0       0       0       0       0       000010000D0000147
     110       0       0       1       0                               0D0000148
     110      94       0       0       0       0       0       000010000D0000149
     110       0       0       1       0                               0D0000150
     510      95       0       0       0       0       0       000010000D0000151
     510       0       0       1       1                               0D0000152
     192      96       0       0       0       0       0       000010000D0000153
     192       0       0       1       1                               0D0000154
     116      97       0       0       0       0       0       000010400D0000155
     116       0       0       1       0                               0D0000156
     123      98       0       0       0       0       0       000010200D0000157
     123       0       0       1       0                               0D0000158
     123      99       0       0       0       0       0       000010200D0000159
     123       0       0       1       0                               0D0000160
     508     100       0       0       0       0       0       000010000D0000161
     508       0       0       2       1                               0D0000162
     110     102       0       0       0       0       0       000010000D0000163
     110       0       0       1       0                               0D0000164
     110     103       0       0       0       0       0       000010000D0000165
     110       0       0       1       0                               0D0000166
     110     104       0       0       0       0       0       000010000D0000167
     110       0       0       1       0                               0D0000168
     110     105       0       0       0       0       0       000010000D0000169
     110       0       0       1       0                               0D0000170
     510     106       0       0       0       0       0       000010000D0000171
     510       0       0       1       1                               0D0000172
     190     107       0       0       0       0       0       000010000D0000173
     190       0       0       1       1                               0D0000174
     116     108       0       0       0       0       0       000010400D0000175
     116       0       0       1       0                               0D0000176
     123     109       0       0       0       0       0       000010200D0000177
     123       0       0       1       0                               0D0000178
     123     110       0       0       0       0       0       000010200D0000179
     123       0       0       1       0                               0D0000180
     508     111       0       0       0       0       0       000010000D0000181
     508       0       0       1       1                               0D0000182
     510     112       0       0       0       0       0       000010000D0000183
     510       0       0       1       1                               0D0000184
     190     113       0       0       0       0       0       000010000D0000185
     190       0       0       1       1                               0D0000186
     116     114       0       0       0       0       0       000010400D0000187
     116       0       0       1       0                               0D0000188
     123     115       0       0       0       0       0       000010200D0000189
     123       0       0       1       0                               0D0000190
     123     116       0       0       0       0       0       000010200D0000191
     123       0       0       1       0                               0D0000192
     508     117       0       0       0       0       0       000010000D0000193
     508       0       0       1       1                               0D0000194
402,1,3;                                                         0000001P0000001
186,5,1,0;                                                       0000003P0000002
514,10,7,0,67,0,79,0,91,1,107,0,119,0,131,1,151,1,171,1,183,1;   0000005P0000003
510,9,1,1,17;                                                    0000007P0000004
190,11,13,15;                                                    0000009P0000005
116,-2.114974862E-15,-3.302,1.905,0;                             0000011P0000006
123,9.436895709E-16,-4.440892099E-16,-1.;                        0000013P0000007
123,5.423418723E-31,1.,-1.110223025E-15;                         0000015P0000008
508,4,0,19,1,1,0,0,19,2,1,0,0,19,3,0,0,0,19,4,0,0;               0000017P0000009
504,18,21,23,1,23,2,25,23,2,23,3,27,23,4,23,3,29,23,1,23,4,31,   0000019P0000010
23,5,23,6,33,23,6,23,2,35,23,5,23,1,37,23,3,23,7,39,23,8,23,7,   0000019P0000011
41,23,4,23,8,43,23,8,23,5,45,23,9,23,9,49,23,10,23,10,53,23,7,   0000019P0000012
23,6,55,23,9,23,11,57,23,11,23,11,61,23,10,23,12,63,23,12,23,12; 0000019P0000013
110,-2.114974862E-15,-3.302,1.905,-1.27,-3.302,1.905;            0000021P0000014
502,12,-2.425171175E-15,-3.302,1.905,-1.27,-3.302,1.905,-1.27,   0000023P0000015
3.302,1.905,-9.587886041E-16,3.302,1.905,9.587886041E-16,-3.302, 0000023P0000016
-1.905,-1.27,-3.302,-1.905,-1.27,3.302,-1.905,2.425171175E-15,   0000023P0000017
3.302,-1.905,9.023892744E-16,2.032,-6.767919558E-16,             0000023P0000018
-3.383959779E-16,-0.762,2.537969834E-16,0.762,2.032,             0000023P0000019
-2.537969834E-16,0.762,-0.762,6.767919558E-16;                   0000023P0000020
110,-1.27,-3.302,1.905,-1.27,3.302,1.905;                        0000025P0000021
110,-2.114974862E-15,3.302,1.905,-1.27,3.302,1.905;              0000027P0000022
110,-1.804778549E-15,-3.302,1.905,-3.27116112E-15,3.302,1.905;   0000029P0000023
110,2.114974862E-15,-3.302,-1.905,-1.27,-3.302,-1.905;           0000031P0000024
110,-1.27,-3.302,-1.905,-1.27,-3.302,1.905;                      0000033P0000025
110,3.27116112E-15,-3.302,-1.905,-1.804778549E-15,-3.302,1.905;  0000035P0000026
110,-1.27,3.302,1.905,-1.27,3.302,-1.905;                        0000037P0000027
110,2.114974862E-15,3.302,-1.905,-1.27,3.302,-1.905;             0000039P0000028
110,-3.27116112E-15,3.302,1.905,1.804778549E-15,3.302,-1.905;    0000041P0000029
110,1.804778549E-15,3.302,-1.905,3.27116112E-15,-3.302,-1.905;   0000043P0000030
100,0.,0.,0.,0.635,-4.229949724E-16,0.635,-4.229949724E-16;      0000045P0000031
124,2.220446049E-16,-9.992007222E-16,1.,3.101963131E-16,1.,      0000047P0000032
-1.110223025E-16,-2.220446049E-16,1.397,-5.551115123E-16,1.,     0000047P0000033
9.992007222E-16,-7.754907827E-16;                                0000047P0000034
100,0.,0.,0.,0.635,-4.229949724E-16,0.635,-4.229949724E-16;      0000049P0000035
124,2.220446049E-16,-9.992007222E-16,1.,-3.101963131E-16,1.,     0000051P0000036
-1.110223025E-16,-2.220446049E-16,-1.397,-5.551115123E-16,1.,    0000051P0000037
9.992007222E-16,7.754907827E-16;                                 0000051P0000038
110,-1.27,3.302,-1.905,-1.27,-3.302,-1.905;                      0000053P0000039
110,9.023892744E-16,2.032,-6.767919558E-16,0.762,2.032,          0000055P0000040
-2.537969834E-16;                                                0000055P0000041
100,0.,0.,0.,0.635,-4.229949724E-16,0.635,-4.229949724E-16;      0000057P0000042
124,2.220446049E-16,-9.992007222E-16,1.,0.762,1.,                0000059P0000043
-1.110223025E-16,-2.220446049E-16,1.397,-5.551115123E-16,1.,     0000059P0000044
9.992007222E-16,-9.992007222E-16;                                0000059P0000045
110,-3.383959779E-16,-0.762,2.537969834E-16,0.762,-0.762,        0000061P0000046
6.767919558E-16;                                                 0000061P0000047
100,0.,0.,0.,0.635,-4.229949724E-16,0.635,-4.229949724E-16;      0000063P0000048
124,2.220446049E-16,-9.992007222E-16,1.,0.762,1.,                0000065P0000049
-1.110223025E-16,-2.220446049E-16,-1.397,-5.551115123E-16,1.,    0000065P0000050
9.992007222E-16,5.551115123E-16;                                 0000065P0000051
510,69,1,1,77;                                                   0000067P0000052
190,71,73,75;                                                    0000069P0000053
116,2.114974862E-15,-3.302,-1.905,0;                             0000071P0000054
123,2.220446049E-16,1.,-8.881784197E-16;                         0000073P0000055
123,-1.110223025E-15,2.220446049E-16,1.;                         0000075P0000056
508,4,0,19,5,1,0,0,19,6,1,0,0,19,1,0,0,0,19,7,0,0;               0000077P0000057
510,81,1,1,89;                                                   0000079P0000058
190,83,85,87;                                                    0000081P0000059
116,-2.114974862E-15,3.302,1.905,0;                              0000083P0000060
123,-2.220446049E-16,-1.,8.881784197E-16;                        0000085P0000061
123,1.110223025E-15,-2.220446049E-16,-1.;                        0000087P0000062
508,4,0,19,3,1,0,0,19,8,1,0,0,19,9,0,0,0,19,10,0,0;              0000089P0000063
510,93,3,1,101,103,105;                                          0000091P0000064
190,95,97,99;                                                    0000093P0000065
116,-2.319844942E-31,4.264348088E-17,1.918956639E-16,0;          0000095P0000066
123,1.,-1.110223025E-15,8.751425667E-31;                         0000097P0000067
123,-1.33226763E-15,-2.220446049E-16,1.;                         0000099P0000068
508,4,0,19,4,0,0,0,19,7,0,0,0,19,11,0,0,0,19,10,0,0;             0000101P0000069
508,1,0,19,12,0,0;                                               0000103P0000070
508,1,0,19,13,0,0;                                               0000105P0000071
510,109,1,1,117;                                                 0000107P0000072
190,111,113,115;                                                 0000109P0000073
116,-1.27,8.886334256E-16,1.554312234E-15,0;                     0000111P0000074
123,1.,-1.110223025E-15,8.751425667E-31;                         0000113P0000075
123,-1.33226763E-15,-2.220446049E-16,1.;                         0000115P0000076
508,4,0,19,2,0,0,0,19,6,0,0,0,19,14,0,0,0,19,8,0,0;              0000117P0000077
510,121,1,1,129;                                                 0000119P0000078
190,123,125,127;                                                 0000121P0000079
116,2.114974862E-15,3.302,-1.905,0;                              0000123P0000080
123,-9.436895709E-16,4.440892099E-16,1.;                         0000125P0000081
123,-5.423418723E-31,-1.,1.110223025E-15;                        0000127P0000082
508,4,0,19,9,1,0,0,19,14,1,0,0,19,5,0,0,0,19,11,0,0;             0000129P0000083
510,133,1,1,141;                                                 0000131P0000084
192,135,137,0.635,139;                                           0000133P0000085
116,6.203926262E-16,1.397,-4.652944696E-16,0;                    0000135P0000086
123,-1.,4.440892099E-16,-7.771561172E-16;                        0000137P0000087
123,4.440892099E-16,1.,-3.330669074E-16;                         0000139P0000088
508,4,0,19,15,0,1,0,143,0,19,12,1,1,0,145,0,19,15,1,1,0,147,0,   0000141P0000089
19,16,0,1,0,149;                                                 0000141P0000090
110,0.,-0.762,0.,0.,0.,0.;                                       0000143P0000091
110,0.,0.,0.,-360.,0.,0.;                                        0000145P0000092
110,-360.,0.,0.,-360.,-0.762,0.;                                 0000147P0000093
110,-360.,-0.762,0.,0.,-0.762,0.;                                0000149P0000094
510,153,1,1,161;                                                 0000151P0000095
192,155,157,0.635,159;                                           0000153P0000096
116,-6.203926262E-16,-1.397,4.652944696E-16,0;                   0000155P0000097
123,-1.,4.440892099E-16,-7.771561172E-16;                        0000157P0000098
123,4.440892099E-16,1.,-3.330669074E-16;                         0000159P0000099
508,4,0,19,17,0,1,0,163,0,19,13,1,1,0,165,0,19,17,1,1,0,167,0,   0000161P0000100
19,18,0,1,0,169;                                                 0000161P0000101
110,0.,-0.762,0.,0.,0.,0.;                                       0000163P0000102
110,0.,0.,0.,-360.,0.,0.;                                        0000165P0000103
110,-360.,0.,0.,-360.,-0.762,0.;                                 0000167P0000104
110,-360.,-0.762,0.,0.,-0.762,0.;                                0000169P0000105
510,173,1,1,181;                                                 0000171P0000106
190,175,177,179;                                                 0000173P0000107
116,0.762,-5.74889249E-16,-1.110223025E-16,0;                    0000175P0000108
123,1.,-8.881784197E-16,3.330669074E-16;                         0000177P0000109
123,-9.992007222E-16,-1.110223025E-16,1.;                        0000179P0000110
508,1,0,19,16,1,0;                                               0000181P0000111
510,185,1,1,193;                                                 0000183P0000112
190,187,189,191;                                                 0000185P0000113
116,0.762,-5.74889249E-16,-1.110223025E-16,0;                    0000187P0000114
123,1.,-8.881784197E-16,3.330669074E-16;                         0000189P0000115
123,-9.992007222E-16,-1.110223025E-16,1.;                        0000191P0000116
508,1,0,19,18,1,0;                                               0000193P0000117
S      1G      4D    194P    117                                        T0000001
