                                                                        S0000001
,,31HOpen CASCADE IGES processor 7.6,13HFilename.iges,                  G0000001
16HOpen CASCADE 7.6,31HOpen CASCADE IGES processor 7.6,32,308,15,308,15,G0000002
,1.,2,2HMM,1,0.01,15H20231123.131606,1E-07,6.371689,,,11,0,             G0000003
15H20231123.131606,;                                                    G0000004
     402       1       0       0       0       0       0       000000000D0000001
     402       0       0       1       1                               0D0000002
     186       2       0       0       0       0       0       000020000D0000003
     186       0       0       1       0                               0D0000004
     514       3       0       0       0       0       0       000010000D0000005
     514       0       0       2       1                               0D0000006
     510       5       0       0       0       0       0       000010000D0000007
     510       0       0       1       1                               0D0000008
     192       6       0       0       0       0       0       000010000D0000009
     192       0       0       1       1                               0D0000010
     116       7       0       0       0       0       0       000010400D0000011
     116       0       0       1       0                               0D0000012
     123       8       0       0       0       0       0       000010200D0000013
     123       0       0       1       0                               0D0000014
     123       9       0       0       0       0       0       000010200D0000015
     123       0       0       1       0                               0D0000016
     508      10       0       0       0       0       0       000010000D0000017
     508       0       0       2       1                               0D0000018
     504      12       0       0       0       0       0       000010001D0000019
     504       0       0       7       1                               0D0000020
     110      19       0       0       0       0       0       000010000D0000021
     110       0       0       1       0                               0D0000022
     502      20       0       0       0       0       0       000010000D0000023
     502       0       0       8       1                               0D0000024
     100      28       0       0       0       0      27       000010000D0000025
     100       0       0       1       0                               0D0000026
     124      29       0       0       0       0       0       000000000D0000027
     124       0       0       1       0                               0D0000028
     100      30       0       0       0       0       0       000010000D0000029
     100       0       0       1       0                               0D0000030
     100      31       0       0       0       0      33       000010000D0000031
     100       0       0       1       0                               0D0000032
     124      32       0       0       0       0       0       000000000D0000033
     124       0       0       1       0                               0D0000034
     100      33       0       0       0       0      37       000010000D0000035
     100       0       0       1       0                               0D0000036
     124      34       0       0       0       0       0       000000000D0000037
     124       0       0       1       0                               0D0000038
     100      35       0       0       0       0      41       000010000D0000039
     100       0       0       1       0                               0D0000040
     124      36       0       0       0       0       0       000000000D0000041
     124       0       0       1       0                               0D0000042
     100      37       0       0       0       0      45       000010000D0000043
     100       0       0       1       0                               0D0000044
     124      38       0       0       0       0       0       000000000D0000045
     124       0       0       1       0                               0D0000046
     100      39       0       0       0       0       0       000010000D0000047
     100       0       0       1       0                               0D0000048
     100      40       0       0       0       0      51       000010000D0000049
     100       0       0       1       0                               0D0000050
     124      41       0       0       0       0       0       000000000D0000051
     124       0       0       1       0                               0D0000052
     100      42       0       0       0       0      55       000010000D0000053
     100       0       0       1       0                               0D0000054
     124      43       0       0       0       0       0       000000000D0000055
     124       0       0       1       0                               0D0000056
     100      44       0       0       0       0      59       000010000D0000057
     100       0       0       1       0                               0D0000058
     124      45       0       0       0       0       0       000000000D0000059
     124       0       0       1       0                               0D0000060
     100      46       0       0       0       0      63       000010000D0000061
     100       0       0       1       0                               0D0000062
     124      47       0       0       0       0       0       000000000D0000063
     124       0       0       1       0                               0D0000064
     100      48       0       0       0       0      67       000010000D0000065
     100       0       0       1       0                               0D0000066
     124      49       0       0       0       0       0       000000000D0000067
     124       0       0       1       0                               0D0000068
     110      50       0       0       0       0       0       000010000D0000069
     110       0       0       2       0                               0D0000070
     100      52       0       0       0       0      73       000010000D0000071
     100       0       0       1       0                               0D0000072
     124      53       0       0       0       0       0       000000000D0000073
     124       0       0       1       0                               0D0000074
     110      54       0       0       0       0       0       000010000D0000075
     110       0       0       1       0                               0D0000076
     100      55       0       0       0       0      79       000010000D0000077
     100       0       0       1       0                               0D0000078
     124      56       0       0       0       0       0       000000000D0000079
     124       0       0       1       0                               0D0000080
     110      57       0       0       0       0       0       000010000D0000081
     110       0       0       1       0                               0D0000082
     100      58       0       0       0       0      85       000010000D0000083
     100       0       0       1       0                               0D0000084
     124      59       0       0       0       0       0       000000000D0000085
     124       0       0       1       0                               0D0000086
     110      60       0       0       0       0       0       000010000D0000087
     110       0       0       1       0                               0D0000088
     100      61       0       0       0       0      91       000010000D0000089
     100       0       0       1       0                               0D0000090
     124      62       0       0       0       0       0       000000000D0000091
     124       0       0       1       0                               0D0000092
     110      63       0       0       0       0       0       000010000D0000093
     110       0       0       1       0                               0D0000094
     110      64       0       0       0       0       0       000010000D0000095
     110       0       0       1       0                               0D0000096
     100      65       0       0       0       0      99       000010000D0000097
     100       0       0       1       0                               0D0000098
     124      66       0       0       0       0       0       000000000D0000099
     124       0       0       1       0                               0D0000100
     110      67       0       0       0       0       0       000010000D0000101
     110       0       0       1       0                               0D0000102
     100      68       0       0       0       0     105       000010000D0000103
     100       0       0       1       0                               0D0000104
     124      69       0       0       0       0       0       000000000D0000105
     124       0       0       1       0                               0D0000106
     110      70       0       0       0       0       0       000010000D0000107
     110       0       0       1       0                               0D0000108
     100      71       0       0       0       0     111       000010000D0000109
     100       0       0       1       0                               0D0000110
     124      72       0       0       0       0       0       000000000D0000111
     124       0       0       1       0                               0D0000112
     110      73       0       0       0       0       0       000010000D0000113
     110       0       0       1       0                               0D0000114
     100      74       0       0       0       0     117       000010000D0000115
     100       0       0       1       0                               0D0000116
     124      75       0       0       0       0       0       000000000D0000117
     124       0       0       1       0                               0D0000118
     110      76       0       0       0       0       0       000010000D0000119
     110       0       0       1       0                               0D0000120
     110      77       0       0       0       0       0       000010000D0000121
     110       0       0       1       0                               0D0000122
     110      78       0       0       0       0       0       000010000D0000123
     110       0       0       1       0                               0D0000124
     110      79       0       0       0       0       0       000010000D0000125
     110       0       0       1       0                               0D0000126
     510      80       0       0       0       0       0       000010000D0000127
     510       0       0       1       1                               0D0000128
     190      81       0       0       0       0       0       000010000D0000129
     190       0       0       1       1                               0D0000130
     116      82       0       0       0       0       0       000010400D0000131
     116       0       0       1       0                               0D0000132
     123      83       0       0       0       0       0       000010200D0000133
     123       0       0       1       0                               0D0000134
     123      84       0       0       0       0       0       000010200D0000135
     123       0       0       1       0                               0D0000136
     508      85       0       0       0       0       0       000010000D0000137
     508       0       0       1       1                               0D0000138
     508      86       0       0       0       0       0       000010000D0000139
     508       0       0       1       1                               0D0000140
     508      87       0       0       0       0       0       000010000D0000141
     508       0       0       1       1                               0D0000142
     508      88       0       0       0       0       0       000010000D0000143
     508       0       0       1       1                               0D0000144
     508      89       0       0       0       0       0       000010000D0000145
     508       0       0       1       1                               0D0000146
     508      90       0       0       0       0       0       000010000D0000147
     508       0       0       1       1                               0D0000148
     508      91       0       0       0       0       0       000010000D0000149
     508       0       0       1       1                               0D0000150
     508      92       0       0       0       0       0       000010000D0000151
     508       0       0       1       1                               0D0000152
     508      93       0       0       0       0       0       000010000D0000153
     508       0       0       1       1                               0D0000154
     508      94       0       0       0       0       0       000010000D0000155
     508       0       0       1       1                               0D0000156
     510      95       0       0       0       0       0       000010000D0000157
     510       0       0       1       1                               0D0000158
     190      96       0       0       0       0       0       000010000D0000159
     190       0       0       1       1                               0D0000160
     116      97       0       0       0       0       0       000010400D0000161
     116       0       0       1       0                               0D0000162
     123      98       0       0       0       0       0       000010200D0000163
     123       0       0       1       0                               0D0000164
     123      99       0       0       0       0       0       000010200D0000165
     123       0       0       1       0                               0D0000166
     508     100       0       0       0       0       0       000010000D0000167
     508       0       0       1       1                               0D0000168
     508     101       0       0       0       0       0       000010000D0000169
     508       0       0       1       1                               0D0000170
     510     102       0       0       0       0       0       000010000D0000171
     510       0       0       1       1                               0D0000172
     192     103       0       0       0       0       0       000010000D0000173
     192       0       0       1       1                               0D0000174
     116     104       0       0       0       0       0       000010400D0000175
     116       0       0       1       0                               0D0000176
     123     105       0       0       0       0       0       000010200D0000177
     123       0       0       1       0                               0D0000178
     123     106       0       0       0       0       0       000010200D0000179
     123       0       0       1       0                               0D0000180
     508     107       0       0       0       0       0       000010000D0000181
     508       0       0       2       1                               0D0000182
     110     109       0       0       0       0       0       000010000D0000183
     110       0       0       1       0                               0D0000184
     110     110       0       0       0       0       0       000010000D0000185
     110       0       0       1       0                               0D0000186
     110     111       0       0       0       0       0       000010000D0000187
     110       0       0       1       0                               0D0000188
     110     112       0       0       0       0       0       000010000D0000189
     110       0       0       1       0                               0D0000190
     510     113       0       0       0       0       0       000010000D0000191
     510       0       0       1       1                               0D0000192
     192     114       0       0       0       0       0       000010000D0000193
     192       0       0       1       1                               0D0000194
     116     115       0       0       0       0       0       000010400D0000195
     116       0       0       1       0                               0D0000196
     123     116       0       0       0       0       0       000010200D0000197
     123       0       0       1       0                               0D0000198
     123     117       0       0       0       0       0       000010200D0000199
     123       0       0       1       0                               0D0000200
     508     118       0       0       0       0       0       000010000D0000201
     508       0       0       2       1                               0D0000202
     110     120       0       0       0       0       0       000010000D0000203
     110       0       0       1       0                               0D0000204
     110     121       0       0       0       0       0       000010000D0000205
     110       0       0       1       0                               0D0000206
     110     122       0       0       0       0       0       000010000D0000207
     110       0       0       1       0                               0D0000208
     110     123       0       0       0       0       0       000010000D0000209
     110       0       0       1       0                               0D0000210
     510     124       0       0       0       0       0       000010000D0000211
     510       0       0       1       1                               0D0000212
     192     125       0       0       0       0       0       000010000D0000213
     192       0       0       1       1                               0D0000214
     116     126       0       0       0       0       0       000010400D0000215
     116       0       0       1       0                               0D0000216
     123     127       0       0       0       0       0       000010200D0000217
     123       0       0       1       0                               0D0000218
     123     128       0       0       0       0       0       000010200D0000219
     123       0       0       1       0                               0D0000220
     508     129       0       0       0       0       0       000010000D0000221
     508       0       0       2       1                               0D0000222
     110     131       0       0       0       0       0       000010000D0000223
     110       0       0       1       0                               0D0000224
     110     132       0       0       0       0       0       000010000D0000225
     110       0       0       1       0                               0D0000226
     110     133       0       0       0       0       0       000010000D0000227
     110       0       0       1       0                               0D0000228
     110     134       0       0       0       0       0       000010000D0000229
     110       0       0       1       0                               0D0000230
     510     135       0       0       0       0       0       000010000D0000231
     510       0       0       1       1                               0D0000232
     192     136       0       0       0       0       0       000010000D0000233
     192       0       0       1       1                               0D0000234
     116     137       0       0       0       0       0       000010400D0000235
     116       0       0       1       0                               0D0000236
     123     138       0       0       0       0       0       000010200D0000237
     123       0       0       1       0                               0D0000238
     123     139       0       0       0       0       0       000010200D0000239
     123       0       0       1       0                               0D0000240
     508     140       0       0       0       0       0       000010000D0000241
     508       0       0       2       1                               0D0000242
     110     142       0       0       0       0       0       000010000D0000243
     110       0       0       1       0                               0D0000244
     110     143       0       0       0       0       0       000010000D0000245
     110       0       0       1       0                               0D0000246
     110     144       0       0       0       0       0       000010000D0000247
     110       0       0       1       0                               0D0000248
     110     145       0       0       0       0       0       000010000D0000249
     110       0       0       1       0                               0D0000250
     510     146       0       0       0       0       0       000010000D0000251
     510       0       0       1       1                               0D0000252
     192     147       0       0       0       0       0       000010000D0000253
     192       0       0       1       1                               0D0000254
     116     148       0       0       0       0       0       000010400D0000255
     116       0       0       1       0                               0D0000256
     123     149       0       0       0       0       0       000010200D0000257
     123       0       0       1       0                               0D0000258
     123     150       0       0       0       0       0       000010200D0000259
     123       0       0       1       0                               0D0000260
     508     151       0       0       0       0       0       000010000D0000261
     508       0       0       2       1                               0D0000262
     110     153       0       0       0       0       0       000010000D0000263
     110       0       0       1       0                               0D0000264
     110     154       0       0       0       0       0       000010000D0000265
     110       0       0       1       0                               0D0000266
     110     155       0       0       0       0       0       000010000D0000267
     110       0       0       1       0                               0D0000268
     110     156       0       0       0       0       0       000010000D0000269
     110       0       0       1       0                               0D0000270
     510     157       0       0       0       0       0       000010000D0000271
     510       0       0       1       1                               0D0000272
     192     158       0       0       0       0       0       000010000D0000273
     192       0       0       1       1                               0D0000274
     116     159       0       0       0       0       0       000010400D0000275
     116       0       0       1       0                               0D0000276
     123     160       0       0       0       0       0       000010200D0000277
     123       0       0       1       0                               0D0000278
     123     161       0       0       0       0       0       000010200D0000279
     123       0       0       1       0                               0D0000280
     508     162       0       0       0       0       0       000010000D0000281
     508       0       0       2       1                               0D0000282
     110     164       0       0       0       0       0       000010000D0000283
     110       0       0       1       0                               0D0000284
     110     165       0       0       0       0       0       000010000D0000285
     110       0       0       1       0                               0D0000286
     110     166       0       0       0       0       0       000010000D0000287
     110       0       0       1       0                               0D0000288
     110     167       0       0       0       0       0       000010000D0000289
     110       0       0       1       0                               0D0000290
     510     168       0       0       0       0       0       000010000D0000291
     510       0       0       1       1                               0D0000292
     192     169       0       0       0       0       0       000010000D0000293
     192       0       0       1       1                               0D0000294
     116     170       0       0       0       0       0       000010400D0000295
     116       0       0       1       0                               0D0000296
     123     171       0       0       0       0       0       000010200D0000297
     123       0       0       1       0                               0D0000298
     123     172       0       0       0       0       0       000010200D0000299
     123       0       0       1       0                               0D0000300
     508     173       0       0       0       0       0       000010000D0000301
     508       0       0       2       1                               0D0000302
     110     175       0       0       0       0       0       000010000D0000303
     110       0       0       1       0                               0D0000304
     110     176       0       0       0       0       0       000010000D0000305
     110       0       0       1       0                               0D0000306
     110     177       0       0       0       0       0       000010000D0000307
     110       0       0       1       0                               0D0000308
     110     178       0       0       0       0       0       000010000D0000309
     110       0       0       1       0                               0D0000310
     510     179       0       0       0       0       0       000010000D0000311
     510       0       0       1       1                               0D0000312
     192     180       0       0       0       0       0       000010000D0000313
     192       0       0       1       1                               0D0000314
     116     181       0       0       0       0       0       000010400D0000315
     116       0       0       1       0                               0D0000316
     123     182       0       0       0       0       0       000010200D0000317
     123       0       0       1       0                               0D0000318
     123     183       0       0       0       0       0       000010200D0000319
     123       0       0       1       0                               0D0000320
     508     184       0       0       0       0       0       000010000D0000321
     508       0       0       2       1                               0D0000322
     110     186       0       0       0       0       0       000010000D0000323
     110       0       0       1       0                               0D0000324
     110     187       0       0       0       0       0       000010000D0000325
     110       0       0       1       0                               0D0000326
     110     188       0       0       0       0       0       000010000D0000327
     110       0       0       1       0                               0D0000328
     110     189       0       0       0       0       0       000010000D0000329
     110       0       0       1       0                               0D0000330
     510     190       0       0       0       0       0       000010000D0000331
     510       0       0       1       1                               0D0000332
     192     191       0       0       0       0       0       000010000D0000333
     192       0       0       1       1                               0D0000334
     116     192       0       0       0       0       0       000010400D0000335
     116       0       0       1       0                               0D0000336
     123     193       0       0       0       0       0       000010200D0000337
     123       0       0       1       0                               0D0000338
     123     194       0       0       0       0       0       000010200D0000339
     123       0       0       1       0                               0D0000340
     508     195       0       0       0       0       0       000010000D0000341
     508       0       0       2       1                               0D0000342
     110     197       0       0       0       0       0       000010000D0000343
     110       0       0       1       0                               0D0000344
     110     198       0       0       0       0       0       000010000D0000345
     110       0       0       1       0                               0D0000346
     110     199       0       0       0       0       0       000010000D0000347
     110       0       0       1       0                               0D0000348
     110     200       0       0       0       0       0       000010000D0000349
     110       0       0       1       0                               0D0000350
     510     201       0       0       0       0       0       000010000D0000351
     510       0       0       1       1                               0D0000352
     190     202       0       0       0       0       0       000010000D0000353
     190       0       0       1       1                               0D0000354
     116     203       0       0       0       0       0       000010400D0000355
     116       0       0       1       0                               0D0000356
     123     204       0       0       0       0       0       000010200D0000357
     123       0       0       1       0                               0D0000358
     123     205       0       0       0       0       0       000010200D0000359
     123       0       0       1       0                               0D0000360
     508     206       0       0       0       0       0       000010000D0000361
     508       0       0       1       1                               0D0000362
     510     207       0       0       0       0       0       000010000D0000363
     510       0       0       1       1                               0D0000364
     190     208       0       0       0       0       0       000010000D0000365
     190       0       0       1       1                               0D0000366
     116     209       0       0       0       0       0       000010400D0000367
     116       0       0       1       0                               0D0000368
     123     210       0       0       0       0       0       000010200D0000369
     123       0       0       1       0                               0D0000370
     123     211       0       0       0       0       0       000010200D0000371
     123       0       0       1       0                               0D0000372
     508     212       0       0       0       0       0       000010000D0000373
     508       0       0       1       1                               0D0000374
     510     213       0       0       0       0       0       000010000D0000375
     510       0       0       1       1                               0D0000376
     190     214       0       0       0       0       0       000010000D0000377
     190       0       0       1       1                               0D0000378
     116     215       0       0       0       0       0       000010400D0000379
     116       0       0       1       0                               0D0000380
     123     216       0       0       0       0       0       000010200D0000381
     123       0       0       1       0                               0D0000382
     123     217       0       0       0       0       0       000010200D0000383
     123       0       0       1       0                               0D0000384
     508     218       0       0       0       0       0       000010000D0000385
     508       0       0       1       1                               0D0000386
     510     219       0       0       0       0       0       000010000D0000387
     510       0       0       1       1                               0D0000388
     190     220       0       0       0       0       0       000010000D0000389
     190       0       0       1       1                               0D0000390
     116     221       0       0       0       0       0       000010400D0000391
     116       0       0       1       0                               0D0000392
     123     222       0       0       0       0       0       000010200D0000393
     123       0       0       1       0                               0D0000394
     123     223       0       0       0       0       0       000010200D0000395
     123       0       0       1       0                               0D0000396
     508     224       0       0       0       0       0       000010000D0000397
     508       0       0       1       1                               0D0000398
     510     225       0       0       0       0       0       000010000D0000399
     510       0       0       1       1                               0D0000400
     190     226       0       0       0       0       0       000010000D0000401
     190       0       0       1       1                               0D0000402
     116     227       0       0       0       0       0       000010400D0000403
     116       0       0       1       0                               0D0000404
     123     228       0       0       0       0       0       000010200D0000405
     123       0       0       1       0                               0D0000406
     123     229       0       0       0       0       0       000010200D0000407
     123       0       0       1       0                               0D0000408
     508     230       0       0       0       0       0       000010000D0000409
     508       0       0       1       1                               0D0000410
     510     231       0       0       0       0       0       000010000D0000411
     510       0       0       1       1                               0D0000412
     190     232       0       0       0       0       0       000010000D0000413
     190       0       0       1       1                               0D0000414
     116     233       0       0       0       0       0       000010400D0000415
     116       0       0       1       0                               0D0000416
     123     234       0       0       0       0       0       000010200D0000417
     123       0       0       1       0                               0D0000418
     123     235       0       0       0       0       0       000010200D0000419
     123       0       0       1       0                               0D0000420
     508     236       0       0       0       0       0       000010000D0000421
     508       0       0       1       1                               0D0000422
     510     237       0       0       0       0       0       000010000D0000423
     510       0       0       1       1                               0D0000424
     190     238       0       0       0       0       0       000010000D0000425
     190       0       0       1       1                               0D0000426
     116     239       0       0       0       0       0       000010400D0000427
     116       0       0       1       0                               0D0000428
     123     240       0       0       0       0       0       000010200D0000429
     123       0       0       1       0                               0D0000430
     123     241       0       0       0       0       0       000010200D0000431
     123       0       0       1       0                               0D0000432
     508     242       0       0       0       0       0       000010000D0000433
     508       0       0       1       1                               0D0000434
     510     243       0       0       0       0       0       000010000D0000435
     510       0       0       1       1                               0D0000436
     190     244       0       0       0       0       0       000010000D0000437
     190       0       0       1       1                               0D0000438
     116     245       0       0       0       0       0       000010400D0000439
     116       0       0       1       0                               0D0000440
     123     246       0       0       0       0       0       000010200D0000441
     123       0       0       1       0                               0D0000442
     123     247       0       0       0       0       0       000010200D0000443
     123       0       0       1       0                               0D0000444
     508     248       0       0       0       0       0       000010000D0000445
     508       0       0       1       1                               0D0000446
402,1,3;                                                         0000001P0000001
186,5,1,0;                                                       0000003P0000002
514,20,7,1,127,1,157,0,171,1,191,0,211,0,231,1,251,0,271,0,291,  0000005P0000003
1,311,0,331,1,351,1,363,1,375,1,387,1,399,1,411,1,423,1,435,1;   0000005P0000004
510,9,1,1,17;                                                    0000007P0000005
192,11,13,6.35,15;                                               0000009P0000006
116,0.,0.,0.,0;                                                  0000011P0000007
123,0.,0.,1.;                                                    0000013P0000008
123,1.,0.,0.;                                                    0000015P0000009
508,4,0,19,1,1,1,0,119,0,19,2,1,1,0,121,0,19,1,0,1,0,123,0,19,3, 0000017P0000010
0,1,0,125;                                                       0000017P0000011
504,30,21,23,1,23,2,25,23,2,23,2,29,23,1,23,1,31,23,3,23,3,35,   0000019P0000012
23,4,23,4,39,23,5,23,5,43,23,6,23,6,47,23,7,23,7,49,23,8,23,8,   0000019P0000013
53,23,9,23,9,57,23,10,23,10,61,23,11,23,11,65,23,12,23,12,69,23, 0000019P0000014
3,23,13,71,23,13,23,13,75,23,4,23,14,77,23,14,23,14,81,23,5,23,  0000019P0000015
15,83,23,15,23,15,87,23,6,23,16,89,23,16,23,16,93,23,7,23,12,95, 0000019P0000016
23,8,23,17,97,23,17,23,17,101,23,9,23,18,103,23,18,23,18,107,23, 0000019P0000017
10,23,19,109,23,19,23,19,113,23,11,23,20,115,23,20,23,20;        0000019P0000018
110,6.35,0.,0.,6.35,0.,-2.54;                                    0000021P0000019
502,20,6.35,0.,0.,6.35,0.,-2.54,-2.508089642,-3.143089642,0.,    0000023P0000020
-3.556,-4.085620731E-14,0.,0.889,-4.445,0.,3.778089642,          0000023P0000021
-3.143089642,0.,2.54,0.,0.,5.334,0.,0.,-2.508089642,3.143089642, 0000023P0000022
0.,0.889,4.445,0.,3.778089642,3.143089642,0.,2.54,0.,-2.54,      0000023P0000023
-2.508089642,-3.143089642,0.762,-3.556,-4.085620731E-14,-1.27,   0000023P0000024
0.889,-4.445,-1.27,3.778089642,-3.143089642,0.762,5.334,0.,      0000023P0000025
-1.27,-2.508089642,3.143089642,0.762,0.889,4.445,-1.27,          0000023P0000026
3.778089642,3.143089642,0.762;                                   0000023P0000027
100,0.,0.,0.,6.35,0.,6.35,0.;                                    0000025P0000028
124,1.,0.,0.,0.,0.,1.,0.,0.,0.,0.,1.,-2.54;                      0000027P0000029
100,0.,0.,0.,6.35,0.,6.35,0.;                                    0000029P0000030
100,0.,0.,0.,0.635,0.,0.635,0.;                                  0000031P0000031
124,1.,0.,0.,-3.143089642,0.,1.,0.,-3.143089642,0.,0.,1.,0.;     0000033P0000032
100,0.,0.,0.,0.889,0.,0.889,0.;                                  0000035P0000033
124,1.,0.,0.,-4.445,0.,1.,0.,-4.085620731E-14,0.,0.,1.,0.;       0000037P0000034
100,0.,0.,0.,0.889,0.,0.889,0.;                                  0000039P0000035
124,1.,0.,0.,2.41E-14,0.,1.,0.,-4.445,0.,0.,1.,0.;               0000041P0000036
100,0.,0.,0.,0.635,0.,0.635,0.;                                  0000043P0000037
124,1.,0.,0.,3.143089642,0.,1.,0.,-3.143089642,0.,0.,1.,0.;      0000045P0000038
100,0.,0.,0.,2.54,0.,2.54,0.;                                    0000047P0000039
100,0.,0.,0.,0.889,0.,0.889,0.;                                  0000049P0000040
124,1.,0.,0.,4.445,0.,1.,0.,0.,0.,0.,1.,0.;                      0000051P0000041
100,0.,0.,0.,0.635,0.,0.635,0.;                                  0000053P0000042
124,1.,0.,0.,-3.143089642,0.,1.,0.,3.143089642,0.,0.,1.,0.;      0000055P0000043
100,0.,0.,0.,0.889,0.,0.889,0.;                                  0000057P0000044
124,1.,0.,0.,-5.41788836E-14,0.,1.,0.,4.445,0.,0.,1.,0.;         0000059P0000045
100,0.,0.,0.,0.635,0.,0.635,0.;                                  0000061P0000046
124,1.,0.,0.,3.143089642,0.,1.,0.,3.143089642,0.,0.,1.,0.;       0000063P0000047
100,0.,0.,0.,2.54,0.,2.54,0.;                                    0000065P0000048
124,1.,0.,0.,0.,0.,1.,0.,0.,0.,0.,1.,-2.54;                      0000067P0000049
110,-2.508089642,-3.143089642,0.,-2.508089642,-3.143089642,      0000069P0000050
0.762;                                                           0000069P0000051
100,0.,0.,0.,0.635,0.,0.635,0.;                                  0000071P0000052
124,1.,0.,0.,-3.143089642,0.,1.,0.,-3.143089642,0.,0.,1.,0.762;  0000073P0000053
110,-3.556,-4.085620731E-14,0.,-3.556,-4.085620731E-14,-1.27;    0000075P0000054
100,0.,0.,0.,0.889,0.,0.889,0.;                                  0000077P0000055
124,1.,0.,0.,-4.445,0.,1.,0.,-4.085620731E-14,0.,0.,1.,-1.27;    0000079P0000056
110,0.889,-4.445,0.,0.889,-4.445,-1.27;                          0000081P0000057
100,0.,0.,0.,0.889,0.,0.889,0.;                                  0000083P0000058
124,1.,0.,0.,2.41E-14,0.,1.,0.,-4.445,0.,0.,1.,-1.27;            0000085P0000059
110,3.778089642,-3.143089642,0.,3.778089642,-3.143089642,0.762;  0000087P0000060
100,0.,0.,0.,0.635,0.,0.635,0.;                                  0000089P0000061
124,1.,0.,0.,3.143089642,0.,1.,0.,-3.143089642,0.,0.,1.,0.762;   0000091P0000062
110,2.54,0.,0.,2.54,0.,-2.54;                                    0000093P0000063
110,5.334,0.,0.,5.334,0.,-1.27;                                  0000095P0000064
100,0.,0.,0.,0.889,0.,0.889,0.;                                  0000097P0000065
124,1.,0.,0.,4.445,0.,1.,0.,0.,0.,0.,1.,-1.27;                   0000099P0000066
110,-2.508089642,3.143089642,0.,-2.508089642,3.143089642,0.762;  0000101P0000067
100,0.,0.,0.,0.635,0.,0.635,0.;                                  0000103P0000068
124,1.,0.,0.,-3.143089642,0.,1.,0.,3.143089642,0.,0.,1.,0.762;   0000105P0000069
110,0.889,4.445,0.,0.889,4.445,-1.27;                            0000107P0000070
100,0.,0.,0.,0.889,0.,0.889,0.;                                  0000109P0000071
124,1.,0.,0.,-5.41788836E-14,0.,1.,0.,4.445,0.,0.,1.,-1.27;      0000111P0000072
110,3.778089642,3.143089642,0.,3.778089642,3.143089642,0.762;    0000113P0000073
100,0.,0.,0.,0.635,0.,0.635,0.;                                  0000115P0000074
124,1.,0.,0.,3.143089642,0.,1.,0.,3.143089642,0.,0.,1.,0.762;    0000117P0000075
110,0.,0.,0.,0.,-2.54,0.;                                        0000119P0000076
110,0.,-2.54,0.,360.,-2.54,0.;                                   0000121P0000077
110,360.,-2.54,0.,360.,0.,0.;                                    0000123P0000078
110,360.,0.,0.,0.,0.,0.;                                         0000125P0000079
510,129,10,1,137,139,141,143,145,147,149,151,153,155;            0000127P0000080
190,131,133,135;                                                 0000129P0000081
116,-1.922722346E-17,5.087374677E-16,0.,0;                       0000131P0000082
123,0.,0.,1.;                                                    0000133P0000083
123,1.,0.,0.;                                                    0000135P0000084
508,1,0,19,3,1,0;                                                0000137P0000085
508,1,0,19,4,0,0;                                                0000139P0000086
508,1,0,19,5,0,0;                                                0000141P0000087
508,1,0,19,6,0,0;                                                0000143P0000088
508,1,0,19,7,0,0;                                                0000145P0000089
508,1,0,19,8,0,0;                                                0000147P0000090
508,1,0,19,9,0,0;                                                0000149P0000091
508,1,0,19,10,0,0;                                               0000151P0000092
508,1,0,19,11,0,0;                                               0000153P0000093
508,1,0,19,12,0,0;                                               0000155P0000094
510,159,2,1,167,169;                                             0000157P0000095
190,161,163,165;                                                 0000159P0000096
116,-1.922722346E-17,5.087374677E-16,-2.54,0;                    0000161P0000097
123,0.,0.,1.;                                                    0000163P0000098
123,1.,0.,0.;                                                    0000165P0000099
508,1,0,19,2,1,0;                                                0000167P0000100
508,1,0,19,13,0,0;                                               0000169P0000101
510,173,1,1,181;                                                 0000171P0000102
192,175,177,0.635,179;                                           0000173P0000103
116,-3.143089642,-3.143089642,0.,0;                              0000175P0000104
123,-0.,-0.,-1.;                                                 0000177P0000105
123,1.,0.,0.;                                                    0000179P0000106
508,4,0,19,14,0,1,0,183,0,19,4,1,1,0,185,0,19,14,1,1,0,187,0,19, 0000181P0000107
15,0,1,0,189;                                                    0000181P0000108
110,0.,-0.762,0.,0.,0.,0.;                                       0000183P0000109
110,0.,0.,0.,-360.,0.,0.;                                        0000185P0000110
110,-360.,0.,0.,-360.,-0.762,0.;                                 0000187P0000111
110,-360.,-0.762,0.,0.,-0.762,0.;                                0000189P0000112
510,193,1,1,201;                                                 0000191P0000113
192,195,197,0.889,199;                                           0000193P0000114
116,-4.445,-4.085620731E-14,0.,0;                                0000195P0000115
123,0.,0.,1.;                                                    0000197P0000116
123,1.,0.,0.;                                                    0000199P0000117
508,4,0,19,16,1,1,0,203,0,19,17,1,1,0,205,0,19,16,0,1,0,207,0,   0000201P0000118
19,5,0,1,0,209;                                                  0000201P0000119
110,0.,0.,0.,0.,-1.27,0.;                                        0000203P0000120
110,0.,-1.27,0.,360.,-1.27,0.;                                   0000205P0000121
110,360.,-1.27,0.,360.,0.,0.;                                    0000207P0000122
110,360.,0.,0.,0.,0.,0.;                                         0000209P0000123
510,213,1,1,221;                                                 0000211P0000124
192,215,217,0.889,219;                                           0000213P0000125
116,2.41E-14,-4.445,0.,0;                                        0000215P0000126
123,0.,0.,1.;                                                    0000217P0000127
123,1.,0.,0.;                                                    0000219P0000128
508,4,0,19,18,1,1,0,223,0,19,19,1,1,0,225,0,19,18,0,1,0,227,0,   0000221P0000129
19,6,0,1,0,229;                                                  0000221P0000130
110,0.,0.,0.,0.,-1.27,0.;                                        0000223P0000131
110,0.,-1.27,0.,360.,-1.27,0.;                                   0000225P0000132
110,360.,-1.27,0.,360.,0.,0.;                                    0000227P0000133
110,360.,0.,0.,0.,0.,0.;                                         0000229P0000134
510,233,1,1,241;                                                 0000231P0000135
192,235,237,0.635,239;                                           0000233P0000136
116,3.143089642,-3.143089642,0.,0;                               0000235P0000137
123,-0.,-0.,-1.;                                                 0000237P0000138
123,1.,0.,0.;                                                    0000239P0000139
508,4,0,19,20,0,1,0,243,0,19,7,1,1,0,245,0,19,20,1,1,0,247,0,19, 0000241P0000140
21,0,1,0,249;                                                    0000241P0000141
110,0.,-0.762,0.,0.,0.,0.;                                       0000243P0000142
110,0.,0.,0.,-360.,0.,0.;                                        0000245P0000143
110,-360.,0.,0.,-360.,-0.762,0.;                                 0000247P0000144
110,-360.,-0.762,0.,0.,-0.762,0.;                                0000249P0000145
510,253,1,1,261;                                                 0000251P0000146
192,255,257,2.54,259;                                            0000253P0000147
116,0.,0.,0.,0;                                                  0000255P0000148
123,0.,0.,1.;                                                    0000257P0000149
123,1.,0.,0.;                                                    0000259P0000150
508,4,0,19,22,1,1,0,263,0,19,13,1,1,0,265,0,19,22,0,1,0,267,0,   0000261P0000151
19,8,0,1,0,269;                                                  0000261P0000152
110,0.,0.,0.,0.,-2.54,0.;                                        0000263P0000153
110,0.,-2.54,0.,360.,-2.54,0.;                                   0000265P0000154
110,360.,-2.54,0.,360.,0.,0.;                                    0000267P0000155
110,360.,0.,0.,0.,0.,0.;                                         0000269P0000156
510,273,1,1,281;                                                 0000271P0000157
192,275,277,0.889,279;                                           0000273P0000158
116,4.445,0.,0.,0;                                               0000275P0000159
123,0.,0.,1.;                                                    0000277P0000160
123,1.,0.,0.;                                                    0000279P0000161
508,4,0,19,23,1,1,0,283,0,19,24,1,1,0,285,0,19,23,0,1,0,287,0,   0000281P0000162
19,9,0,1,0,289;                                                  0000281P0000163
110,0.,0.,0.,0.,-1.27,0.;                                        0000283P0000164
110,0.,-1.27,0.,360.,-1.27,0.;                                   0000285P0000165
110,360.,-1.27,0.,360.,0.,0.;                                    0000287P0000166
110,360.,0.,0.,0.,0.,0.;                                         0000289P0000167
510,293,1,1,301;                                                 0000291P0000168
192,295,297,0.635,299;                                           0000293P0000169
116,-3.143089642,3.143089642,0.,0;                               0000295P0000170
123,-0.,-0.,-1.;                                                 0000297P0000171
123,1.,0.,0.;                                                    0000299P0000172
508,4,0,19,25,0,1,0,303,0,19,10,1,1,0,305,0,19,25,1,1,0,307,0,   0000301P0000173
19,26,0,1,0,309;                                                 0000301P0000174
110,0.,-0.762,0.,0.,0.,0.;                                       0000303P0000175
110,0.,0.,0.,-360.,0.,0.;                                        0000305P0000176
110,-360.,0.,0.,-360.,-0.762,0.;                                 0000307P0000177
110,-360.,-0.762,0.,0.,-0.762,0.;                                0000309P0000178
510,313,1,1,321;                                                 0000311P0000179
192,315,317,0.889,319;                                           0000313P0000180
116,-5.41788836E-14,4.445,0.,0;                                  0000315P0000181
123,0.,0.,1.;                                                    0000317P0000182
123,1.,0.,0.;                                                    0000319P0000183
508,4,0,19,27,1,1,0,323,0,19,28,1,1,0,325,0,19,27,0,1,0,327,0,   0000321P0000184
19,11,0,1,0,329;                                                 0000321P0000185
110,0.,0.,0.,0.,-1.27,0.;                                        0000323P0000186
110,0.,-1.27,0.,360.,-1.27,0.;                                   0000325P0000187
110,360.,-1.27,0.,360.,0.,0.;                                    0000327P0000188
110,360.,0.,0.,0.,0.,0.;                                         0000329P0000189
510,333,1,1,341;                                                 0000331P0000190
192,335,337,0.635,339;                                           0000333P0000191
116,3.143089642,3.143089642,0.,0;                                0000335P0000192
123,-0.,-0.,-1.;                                                 0000337P0000193
123,1.,0.,0.;                                                    0000339P0000194
508,4,0,19,29,0,1,0,343,0,19,12,1,1,0,345,0,19,29,1,1,0,347,0,   0000341P0000195
19,30,0,1,0,349;                                                 0000341P0000196
110,0.,-0.762,0.,0.,0.,0.;                                       0000343P0000197
110,0.,0.,0.,-360.,0.,0.;                                        0000345P0000198
110,-360.,0.,0.,-360.,-0.762,0.;                                 0000347P0000199
110,-360.,-0.762,0.,0.,-0.762,0.;                                0000349P0000200
510,353,1,1,361;                                                 0000351P0000201
190,355,357,359;                                                 0000353P0000202
116,-2.018858463E-16,1.446848565E-15,0.762,0;                    0000355P0000203
123,0.,0.,1.;                                                    0000357P0000204
123,1.,0.,0.;                                                    0000359P0000205
508,1,0,19,15,1,0;                                               0000361P0000206
510,365,1,1,373;                                                 0000363P0000207
190,367,369,371;                                                 0000365P0000208
116,-8.075433854E-15,-9.726763343E-15,-1.27,0;                   0000367P0000209
123,0.,0.,1.;                                                    0000369P0000210
123,1.,0.,0.;                                                    0000371P0000211
508,1,0,19,17,1,0;                                               0000373P0000212
510,377,1,1,385;                                                 0000375P0000213
190,379,381,383;                                                 0000377P0000214
116,-8.075433854E-15,-9.726763343E-15,-1.27,0;                   0000379P0000215
123,0.,0.,1.;                                                    0000381P0000216
123,1.,0.,0.;                                                    0000383P0000217
508,1,0,19,19,1,0;                                               0000385P0000218
510,389,1,1,397;                                                 0000387P0000219
190,391,393,395;                                                 0000389P0000220
116,-2.018858463E-16,1.446848565E-15,0.762,0;                    0000391P0000221
123,0.,0.,1.;                                                    0000393P0000222
123,1.,0.,0.;                                                    0000395P0000223
508,1,0,19,21,1,0;                                               0000397P0000224
510,401,1,1,409;                                                 0000399P0000225
190,403,405,407;                                                 0000401P0000226
116,-8.075433854E-15,-9.726763343E-15,-1.27,0;                   0000403P0000227
123,0.,0.,1.;                                                    0000405P0000228
123,1.,0.,0.;                                                    0000407P0000229
508,1,0,19,24,1,0;                                               0000409P0000230
510,413,1,1,421;                                                 0000411P0000231
190,415,417,419;                                                 0000413P0000232
116,-2.018858463E-16,1.446848565E-15,0.762,0;                    0000415P0000233
123,0.,0.,1.;                                                    0000417P0000234
123,1.,0.,0.;                                                    0000419P0000235
508,1,0,19,26,1,0;                                               0000421P0000236
510,425,1,1,433;                                                 0000423P0000237
190,427,429,431;                                                 0000425P0000238
116,-8.075433854E-15,-9.726763343E-15,-1.27,0;                   0000427P0000239
123,0.,0.,1.;                                                    0000429P0000240
123,1.,0.,0.;                                                    0000431P0000241
508,1,0,19,28,1,0;                                               0000433P0000242
510,437,1,1,445;                                                 0000435P0000243
190,439,441,443;                                                 0000437P0000244
116,-2.018858463E-16,1.446848565E-15,0.762,0;                    0000439P0000245
123,0.,0.,1.;                                                    0000441P0000246
123,1.,0.,0.;                                                    0000443P0000247
508,1,0,19,30,1,0;                                               0000445P0000248
S      1G      4D    446P    248                                        T0000001
