                                                                        S0000001
,,31HOpen CASCADE IGES processor 7.6,13HFilename.iges,                  G0000001
16HOpen CASCADE 7.6,31HOpen CASCADE IGES processor 7.6,32,308,15,308,15,G0000002
,1.,2,2HMM,1,0.01,15H20231123.131606,1E-07,12.7,,,11,0,                 G0000003
15H20231123.131606,;                                                    G0000004
     402       1       0       0       0       0       0       000000000D0000001
     402       0       0       1       1                               0D0000002
     186       2       0       0       0       0       0       000020000D0000003
     186       0       0       1       0                               0D0000004
     514       3       0       0       0       0       0       000010000D0000005
     514       0       0       1       1                               0D0000006
     510       4       0       0       0       0       0       000010000D0000007
     510       0       0       1       1                               0D0000008
     192       5       0       0       0       0       0       000010000D0000009
     192       0       0       1       1                               0D0000010
     116       6       0       0       0       0       0       000010400D0000011
     116       0       0       1       0                               0D0000012
     123       7       0       0       0       0       0       000010200D0000013
     123       0       0       1       0                               0D0000014
     123       8       0       0       0       0       0       000010200D0000015
     123       0       0       1       0                               0D0000016
     508       9       0       0       0       0       0       000010000D0000017
     508       0       0       2       1                               0D0000018
     504      11       0       0       0       0       0       000010001D0000019
     504       0       0       3       1                               0D0000020
     100      14       0       0       0       0      23       000010000D0000021
     100       0       0       1       0                               0D0000022
     124      15       0       0       0       0       0       000000000D0000023
     124       0       0       2       0                               0D0000024
     502      17       0       0       0       0       0       000010000D0000025
     502       0       0       3       1                               0D0000026
     110      20       0       0       0       0       0       000010000D0000027
     110       0       0       1       0                               0D0000028
     100      21       0       0       0       0      31       000010000D0000029
     100       0       0       1       0                               0D0000030
     124      22       0       0       0       0       0       000000000D0000031
     124       0       0       2       0                               0D0000032
     100      24       0       0       0       0      35       000010000D0000033
     100       0       0       1       0                               0D0000034
     124      25       0       0       0       0       0       000000000D0000035
     124       0       0       2       0                               0D0000036
     110      27       0       0       0       0       0       000010000D0000037
     110       0       0       1       0                               0D0000038
     100      28       0       0       0       0      41       000010000D0000039
     100       0       0       1       0                               0D0000040
     124      29       0       0       0       0       0       000000000D0000041
     124       0       0       2       0                               0D0000042
     100      31       0       0       0       0      45       000010000D0000043
     100       0       0       1       0                               0D0000044
     124      32       0       0       0       0       0       000000000D0000045
     124       0       0       2       0                               0D0000046
     110      34       0       0       0       0       0       000010000D0000047
     110       0       0       1       0                               0D0000048
     100      35       0       0       0       0      51       000010000D0000049
     100       0       0       1       0                               0D0000050
     124      36       0       0       0       0       0       000000000D0000051
     124       0       0       2       0                               0D0000052
     100      38       0       0       0       0      55       000010000D0000053
     100       0       0       1       0                               0D0000054
     124      39       0       0       0       0       0       000000000D0000055
     124       0       0       2       0                               0D0000056
     110      41       0       0       0       0       0       000010000D0000057
     110       0       0       1       0                               0D0000058
     100      42       0       0       0       0      61       000010000D0000059
     100       0       0       1       0                               0D0000060
     124      43       0       0       0       0       0       000000000D0000061
     124       0       0       2       0                               0D0000062
     110      45       0       0       0       0       0       000010000D0000063
     110       0       0       1       0                               0D0000064
     110      46       0       0       0       0       0       000010000D0000065
     110       0       0       1       0                               0D0000066
     110      47       0       0       0       0       0       000010000D0000067
     110       0       0       1       0                               0D0000068
     110      48       0       0       0       0       0       000010000D0000069
     110       0       0       1       0                               0D0000070
     510      49       0       0       0       0       0       000010000D0000071
     510       0       0       1       1                               0D0000072
     190      50       0       0       0       0       0       000010000D0000073
     190       0       0       1       1                               0D0000074
     116      51       0       0       0       0       0       000010400D0000075
     116       0       0       1       0                               0D0000076
     123      52       0       0       0       0       0       000010200D0000077
     123       0       0       1       0                               0D0000078
     123      53       0       0       0       0       0       000010200D0000079
     123       0       0       1       0                               0D0000080
     508      54       0       0       0       0       0       000010000D0000081
     508       0       0       1       1                               0D0000082
     508      55       0       0       0       0       0       000010000D0000083
     508       0       0       1       1                               0D0000084
     510      56       0       0       0       0       0       000010000D0000085
     510       0       0       1       1                               0D0000086
     192      57       0       0       0       0       0       000010000D0000087
     192       0       0       1       1                               0D0000088
     116      58       0       0       0       0       0       000010400D0000089
     116       0       0       1       0                               0D0000090
     123      59       0       0       0       0       0       000010200D0000091
     123       0       0       1       0                               0D0000092
     123      60       0       0       0       0       0       000010200D0000093
     123       0       0       1       0                               0D0000094
     508      61       0       0       0       0       0       000010000D0000095
     508       0       0       2       1                               0D0000096
     110      63       0       0       0       0       0       000010000D0000097
     110       0       0       1       0                               0D0000098
     110      64       0       0       0       0       0       000010000D0000099
     110       0       0       1       0                               0D0000100
     110      65       0       0       0       0       0       000010000D0000101
     110       0       0       1       0                               0D0000102
     110      66       0       0       0       0       0       000010000D0000103
     110       0       0       1       0                               0D0000104
     510      67       0       0       0       0       0       000010000D0000105
     510       0       0       1       1                               0D0000106
     190      68       0       0       0       0       0       000010000D0000107
     190       0       0       1       1                               0D0000108
     116      69       0       0       0       0       0       000010400D0000109
     116       0       0       1       0                               0D0000110
     123      70       0       0       0       0       0       000010200D0000111
     123       0       0       1       0                               0D0000112
     123      71       0       0       0       0       0       000010200D0000113
     123       0       0       1       0                               0D0000114
     508      72       0       0       0       0       0       000010000D0000115
     508       0       0       1       1                               0D0000116
     508      73       0       0       0       0       0       000010000D0000117
     508       0       0       1       1                               0D0000118
     510      74       0       0       0       0       0       000010000D0000119
     510       0       0       1       1                               0D0000120
     192      75       0       0       0       0       0       000010000D0000121
     192       0       0       1       1                               0D0000122
     116      76       0       0       0       0       0       000010400D0000123
     116       0       0       1       0                               0D0000124
     123      77       0       0       0       0       0       000010200D0000125
     123       0       0       1       0                               0D0000126
     123      78       0       0       0       0       0       000010200D0000127
     123       0       0       1       0                               0D0000128
     508      79       0       0       0       0       0       000010000D0000129
     508       0       0       2       1                               0D0000130
     110      81       0       0       0       0       0       000010000D0000131
     110       0       0       1       0                               0D0000132
     110      82       0       0       0       0       0       000010000D0000133
     110       0       0       1       0                               0D0000134
     110      83       0       0       0       0       0       000010000D0000135
     110       0       0       1       0                               0D0000136
     110      84       0       0       0       0       0       000010000D0000137
     110       0       0       1       0                               0D0000138
     510      85       0       0       0       0       0       000010000D0000139
     510       0       0       1       1                               0D0000140
     190      86       0       0       0       0       0       000010000D0000141
     190       0       0       1       1                               0D0000142
     116      87       0       0       0       0       0       000010400D0000143
     116       0       0       1       0                               0D0000144
     123      88       0       0       0       0       0       000010200D0000145
     123       0       0       1       0                               0D0000146
     123      89       0       0       0       0       0       000010200D0000147
     123       0       0       1       0                               0D0000148
     508      90       0       0       0       0       0       000010000D0000149
     508       0       0       1       1                               0D0000150
     508      91       0       0       0       0       0       000010000D0000151
     508       0       0       1       1                               0D0000152
     510      92       0       0       0       0       0       000010000D0000153
     510       0       0       1       1                               0D0000154
     192      93       0       0       0       0       0       000010000D0000155
     192       0       0       1       1                               0D0000156
     116      94       0       0       0       0       0       000010400D0000157
     116       0       0       1       0                               0D0000158
     123      95       0       0       0       0       0       000010200D0000159
     123       0       0       1       0                               0D0000160
     123      96       0       0       0       0       0       000010200D0000161
     123       0       0       1       0                               0D0000162
     508      97       0       0       0       0       0       000010000D0000163
     508       0       0       2       1                               0D0000164
     110      99       0       0       0       0       0       000010000D0000165
     110       0       0       1       0                               0D0000166
     110     100       0       0       0       0       0       000010000D0000167
     110       0       0       1       0                               0D0000168
     110     101       0       0       0       0       0       000010000D0000169
     110       0       0       1       0                               0D0000170
     110     102       0       0       0       0       0       000010000D0000171
     110       0       0       1       0                               0D0000172
     510     103       0       0       0       0       0       000010000D0000173
     510       0       0       1       1                               0D0000174
     190     104       0       0       0       0       0       000010000D0000175
     190       0       0       1       1                               0D0000176
     116     105       0       0       0       0       0       000010400D0000177
     116       0       0       1       0                               0D0000178
     123     106       0       0       0       0       0       000010200D0000179
     123       0       0       1       0                               0D0000180
     123     107       0       0       0       0       0       000010200D0000181
     123       0       0       1       0                               0D0000182
     508     108       0       0       0       0       0       000010000D0000183
     508       0       0       1       1                               0D0000184
     508     109       0       0       0       0       0       000010000D0000185
     508       0       0       1       1                               0D0000186
402,1,3;                                                         0000001P0000001
186,5,1,0;                                                       0000003P0000002
514,8,7,0,71,1,85,0,105,1,119,1,139,1,153,1,173,0;               0000005P0000003
510,9,1,1,17;                                                    0000007P0000004
192,11,13,2.286,15;                                              0000009P0000005
116,0.,2.819966483E-15,12.7,0;                                   0000011P0000006
123,0.,-2.220446049E-16,-1.;                                     0000013P0000007
123,1.,0.,0.;                                                    0000015P0000008
508,4,0,19,1,1,1,0,63,0,19,2,1,1,0,65,0,19,3,0,1,0,67,0,19,2,0,  0000017P0000009
1,0,69;                                                          0000017P0000010
504,12,21,25,1,25,1,27,25,1,25,2,29,25,2,25,2,33,25,3,25,3,37,   0000019P0000011
25,3,25,4,39,25,4,25,4,43,25,5,25,5,47,25,5,25,6,49,25,6,25,6,   0000019P0000012
53,25,7,25,7,57,25,7,25,8,59,25,8,25,8;                          0000019P0000013
100,0.,0.,0.,2.286,0.,2.286,0.;                                  0000021P0000014
124,1.,0.,0.,0.,0.,-1.,-2.220446049E-16,2.819966483E-15,0.,      0000023P0000015
2.220446049E-16,-1.,12.7;                                        0000023P0000016
502,8,2.286,2.819966483E-15,12.7,2.286,0.,0.,3.429,0.,0.,3.429,  0000025P0000017
-3.101963131E-16,-1.397,5.461,-3.101963131E-16,-1.397,5.461,0.,  0000025P0000018
0.,6.604,0.,0.,6.604,2.819966483E-15,12.7;                       0000025P0000019
110,2.286,2.819966483E-15,12.7,2.286,0.,0.;                      0000027P0000020
100,0.,0.,0.,2.286,0.,2.286,0.;                                  0000029P0000021
124,1.,0.,0.,0.,0.,-1.,-2.220446049E-16,0.,0.,2.220446049E-16,   0000031P0000022
-1.,0.;                                                          0000031P0000023
100,0.,0.,0.,3.429,0.,3.429,0.;                                  0000033P0000024
124,1.,0.,0.,0.,0.,-1.,-2.220446049E-16,0.,0.,2.220446049E-16,   0000035P0000025
-1.,0.;                                                          0000035P0000026
110,3.429,0.,0.,3.429,-3.101963131E-16,-1.397;                   0000037P0000027
100,0.,0.,0.,3.429,0.,3.429,0.;                                  0000039P0000028
124,1.,0.,0.,0.,0.,-1.,-2.220446049E-16,-3.101963131E-16,0.,     0000041P0000029
2.220446049E-16,-1.,-1.397;                                      0000041P0000030
100,0.,0.,0.,5.461,0.,5.461,0.;                                  0000043P0000031
124,1.,0.,0.,0.,0.,-1.,-2.220446049E-16,-3.101963131E-16,0.,     0000045P0000032
2.220446049E-16,-1.,-1.397;                                      0000045P0000033
110,5.461,-3.101963131E-16,-1.397,5.461,0.,0.;                   0000047P0000034
100,0.,0.,0.,5.461,0.,5.461,0.;                                  0000049P0000035
124,1.,0.,0.,0.,0.,-1.,-2.220446049E-16,0.,0.,2.220446049E-16,   0000051P0000036
-1.,0.;                                                          0000051P0000037
100,0.,0.,0.,6.604,0.,6.604,0.;                                  0000053P0000038
124,1.,0.,0.,0.,0.,-1.,-2.220446049E-16,0.,0.,2.220446049E-16,   0000055P0000039
-1.,0.;                                                          0000055P0000040
110,6.604,0.,0.,6.604,2.819966483E-15,12.7;                      0000057P0000041
100,0.,0.,0.,6.604,0.,6.604,0.;                                  0000059P0000042
124,1.,0.,0.,0.,0.,-1.,-2.220446049E-16,2.819966483E-15,0.,      0000061P0000043
2.220446049E-16,-1.,12.7;                                        0000061P0000044
110,0.,0.,0.,360.,0.,0.;                                         0000063P0000045
110,360.,0.,0.,360.,12.7,0.;                                     0000065P0000046
110,360.,12.7,0.,0.,12.7,0.;                                     0000067P0000047
110,0.,12.7,0.,0.,0.,0.;                                         0000069P0000048
510,73,2,1,81,83;                                                0000071P0000049
190,75,77,79;                                                    0000073P0000050
116,0.,0.,0.,0;                                                  0000075P0000051
123,0.,-2.220446049E-16,-1.;                                     0000077P0000052
123,1.,0.,0.;                                                    0000079P0000053
508,1,0,19,4,1,0;                                                0000081P0000054
508,1,0,19,3,0,0;                                                0000083P0000055
510,87,1,1,95;                                                   0000085P0000056
192,89,91,3.429,93;                                              0000087P0000057
116,0.,0.,0.,0;                                                  0000089P0000058
123,0.,-2.220446049E-16,-1.;                                     0000091P0000059
123,1.,0.,0.;                                                    0000093P0000060
508,4,0,19,4,1,1,0,97,0,19,5,1,1,0,99,0,19,6,0,1,0,101,0,19,5,0, 0000095P0000061
1,0,103;                                                         0000095P0000062
110,0.,0.,0.,360.,0.,0.;                                         0000097P0000063
110,360.,0.,0.,360.,1.397,0.;                                    0000099P0000064
110,360.,1.397,0.,0.,1.397,0.;                                   0000101P0000065
110,0.,1.397,0.,0.,0.,0.;                                        0000103P0000066
510,107,2,1,115,117;                                             0000105P0000067
190,109,111,113;                                                 0000107P0000068
116,0.,-3.101963131E-16,-1.397,0;                                0000109P0000069
123,0.,-2.220446049E-16,-1.;                                     0000111P0000070
123,1.,0.,0.;                                                    0000113P0000071
508,1,0,19,7,1,0;                                                0000115P0000072
508,1,0,19,6,0,0;                                                0000117P0000073
510,121,1,1,129;                                                 0000119P0000074
192,123,125,5.461,127;                                           0000121P0000075
116,0.,-3.101963131E-16,-1.397,0;                                0000123P0000076
123,0.,2.220446049E-16,1.;                                       0000125P0000077
123,1.,0.,0.;                                                    0000127P0000078
508,4,0,19,7,0,1,0,131,0,19,8,1,1,0,133,0,19,9,1,1,0,135,0,19,8, 0000129P0000079
0,1,0,137;                                                       0000129P0000080
110,-360.,0.,0.,0.,0.,0.;                                        0000131P0000081
110,0.,0.,0.,0.,1.397,0.;                                        0000133P0000082
110,0.,1.397,0.,-360.,1.397,0.;                                  0000135P0000083
110,-360.,1.397,0.,-360.,0.,0.;                                  0000137P0000084
510,141,2,1,149,151;                                             0000139P0000085
190,143,145,147;                                                 0000141P0000086
116,0.,0.,0.,0;                                                  0000143P0000087
123,0.,-2.220446049E-16,-1.;                                     0000145P0000088
123,1.,0.,0.;                                                    0000147P0000089
508,1,0,19,10,1,0;                                               0000149P0000090
508,1,0,19,9,0,0;                                                0000151P0000091
510,155,1,1,163;                                                 0000153P0000092
192,157,159,6.604,161;                                           0000155P0000093
116,0.,0.,0.,0;                                                  0000157P0000094
123,0.,2.220446049E-16,1.;                                       0000159P0000095
123,1.,0.,0.;                                                    0000161P0000096
508,4,0,19,10,0,1,0,165,0,19,11,1,1,0,167,0,19,12,1,1,0,169,0,   0000163P0000097
19,11,0,1,0,171;                                                 0000163P0000098
110,-360.,0.,0.,0.,0.,0.;                                        0000165P0000099
110,0.,0.,0.,0.,12.7,0.;                                         0000167P0000100
110,0.,12.7,0.,-360.,12.7,0.;                                    0000169P0000101
110,-360.,12.7,0.,-360.,0.,0.;                                   0000171P0000102
510,175,2,1,183,185;                                             0000173P0000103
190,177,179,181;                                                 0000175P0000104
116,0.,2.819966483E-15,12.7,0;                                   0000177P0000105
123,0.,-2.220446049E-16,-1.;                                     0000179P0000106
123,1.,0.,0.;                                                    0000181P0000107
508,1,0,19,12,1,0;                                               0000183P0000108
508,1,0,19,1,0,0;                                                0000185P0000109
S      1G      4D    186P    109                                        T0000001
