                                                                        S0000001
,,31HOpen CASCADE IGES processor 7.6,13HFilename.iges,                  G0000001
16HOpen CASCADE 7.6,31HOpen CASCADE IGES processor 7.6,32,308,15,308,15,G0000002
,1.,2,2HMM,1,0.01,15H20231123.131606,1E-07,6.141565,,,11,0,             G0000003
15H20231123.131606,;                                                    G0000004
     402       1       0       0       0       0       0       000000000D0000001
     402       0       0       1       1                               0D0000002
     186       2       0       0       0       0       0       000020000D0000003
     186       0       0       1       0                               0D0000004
     514       3       0       0       0       0       0       000010000D0000005
     514       0       0       1       1                               0D0000006
     510       4       0       0       0       0       0       000010000D0000007
     510       0       0       1       1                               0D0000008
     190       5       0       0       0       0       0       000010000D0000009
     190       0       0       1       1                               0D0000010
     116       6       0       0       0       0       0       000010400D0000011
     116       0       0       1       0                               0D0000012
     123       7       0       0       0       0       0       000010200D0000013
     123       0       0       1       0                               0D0000014
     123       8       0       0       0       0       0       000010200D0000015
     123       0       0       1       0                               0D0000016
     508       9       0       0       0       0       0       000010000D0000017
     508       0       0       1       1                               0D0000018
     504      10       0       0       0       0       0       000010001D0000019
     504       0       0       2       1                               0D0000020
     100      12       0       0       0       0      23       000010000D0000021
     100       0       0       1       0                               0D0000022
     124      13       0       0       0       0       0       000000000D0000023
     124       0       0       2       0                               0D0000024
     502      15       0       0       0       0       0       000010000D0000025
     502       0       0       2       1                               0D0000026
     110      17       0       0       0       0       0       000010000D0000027
     110       0       0       1       0                               0D0000028
     100      18       0       0       0       0      31       000010000D0000029
     100       0       0       1       0                               0D0000030
     124      19       0       0       0       0       0       000000000D0000031
     124       0       0       2       0                               0D0000032
     110      21       0       0       0       0       0       000010000D0000033
     110       0       0       1       0                               0D0000034
     100      22       0       0       0       0      37       000010000D0000035
     100       0       0       1       0                               0D0000036
     124      23       0       0       0       0       0       000000000D0000037
     124       0       0       2       0                               0D0000038
     510      25       0       0       0       0       0       000010000D0000039
     510       0       0       1       1                               0D0000040
     194      26       0       0       0       0       0       000010000D0000041
     194       0       0       1       1                               0D0000042
     116      27       0       0       0       0       0       000010400D0000043
     116       0       0       1       0                               0D0000044
     123      28       0       0       0       0       0       000010200D0000045
     123       0       0       1       0                               0D0000046
     123      29       0       0       0       0       0       000010200D0000047
     123       0       0       1       0                               0D0000048
     508      30       0       0       0       0       0       000010000D0000049
     508       0       0       2       1                               0D0000050
     110      32       0       0       0       0       0       000010000D0000051
     110       0       0       1       0                               0D0000052
     110      33       0       0       0       0       0       000010000D0000053
     110       0       0       1       0                               0D0000054
     110      34       0       0       0       0       0       000010000D0000055
     110       0       0       1       0                               0D0000056
     110      35       0       0       0       0       0       000010000D0000057
     110       0       0       1       0                               0D0000058
     510      36       0       0       0       0       0       000010000D0000059
     510       0       0       1       1                               0D0000060
     192      37       0       0       0       0       0       000010000D0000061
     192       0       0       1       1                               0D0000062
     116      38       0       0       0       0       0       000010400D0000063
     116       0       0       1       0                               0D0000064
     123      39       0       0       0       0       0       000010200D0000065
     123       0       0       1       0                               0D0000066
     123      40       0       0       0       0       0       000010200D0000067
     123       0       0       1       0                               0D0000068
     508      41       0       0       0       0       0       000010000D0000069
     508       0       0       2       1                               0D0000070
     110      43       0       0       0       0       0       000010000D0000071
     110       0       0       1       0                               0D0000072
     110      44       0       0       0       0       0       000010000D0000073
     110       0       0       1       0                               0D0000074
     110      45       0       0       0       0       0       000010000D0000075
     110       0       0       1       0                               0D0000076
     110      46       0       0       0       0       0       000010000D0000077
     110       0       0       1       0                               0D0000078
     510      47       0       0       0       0       0       000010000D0000079
     510       0       0       1       1                               0D0000080
     190      48       0       0       0       0       0       000010000D0000081
     190       0       0       1       1                               0D0000082
     116      49       0       0       0       0       0       000010400D0000083
     116       0       0       1       0                               0D0000084
     123      50       0       0       0       0       0       000010200D0000085
     123       0       0       1       0                               0D0000086
     123      51       0       0       0       0       0       000010200D0000087
     123       0       0       1       0                               0D0000088
     508      52       0       0       0       0       0       000010000D0000089
     508       0       0       1       1                               0D0000090
402,1,3;                                                         0000001P0000001
186,5,1,0;                                                       0000003P0000002
514,4,7,0,39,1,59,1,79,1;                                        0000005P0000003
510,9,1,1,17;                                                    0000007P0000004
190,11,13,15;                                                    0000009P0000005
116,0.,5.921929613E-16,2.667,0;                                  0000011P0000006
123,0.,-2.220446049E-16,-1.;                                     0000013P0000007
123,1.,0.,0.;                                                    0000015P0000008
508,1,0,19,1,1,0;                                                0000017P0000009
504,5,21,25,1,25,1,27,25,1,25,2,29,25,2,25,2,33,25,2,25,3,35,25, 0000019P0000010
3,25,3;                                                          0000019P0000011
100,0.,0.,0.,5.461,0.,5.461,0.;                                  0000021P0000012
124,1.,0.,0.,0.,0.,-1.,-2.220446049E-16,5.921929613E-16,0.,      0000023P0000013
2.220446049E-16,-1.,2.667;                                       0000023P0000014
502,3,5.461,5.921929613E-16,2.667,6.096,1.69197989E-16,0.762,    0000025P0000015
6.096,-5.639932965E-16,-2.54;                                    0000025P0000016
110,5.461,5.921929613E-16,2.667,6.096,1.69197989E-16,0.762;      0000027P0000017
100,0.,0.,0.,6.096,0.,6.096,0.;                                  0000029P0000018
124,1.,0.,0.,0.,0.,-1.,-2.220446049E-16,1.69197989E-16,0.,       0000031P0000019
2.220446049E-16,-1.,0.762;                                       0000031P0000020
110,6.096,1.69197989E-16,0.762,6.096,-5.639932965E-16,-2.54;     0000033P0000021
100,0.,0.,0.,6.096,0.,6.096,0.;                                  0000035P0000022
124,1.,0.,0.,0.,0.,-1.,-2.220446049E-16,-5.639932965E-16,0.,     0000037P0000023
2.220446049E-16,-1.,-2.54;                                       0000037P0000024
510,41,1,1,49;                                                   0000039P0000025
194,43,45,5.461,18.434948823,47;                                 0000041P0000026
116,0.,5.921929613E-16,2.667,0;                                  0000043P0000027
123,0.,-2.220446049E-16,-1.;                                     0000045P0000028
123,1.,0.,0.;                                                    0000047P0000029
508,4,0,19,1,1,1,0,51,0,19,2,1,1,0,53,0,19,3,0,1,0,55,0,19,2,0,  0000049P0000030
1,0,57;                                                          0000049P0000031
110,0.,0.,0.,360.,0.,0.;                                         0000051P0000032
110,360.,0.,0.,360.,2.008046314,0.;                              0000053P0000033
110,360.,2.008046314,0.,0.,2.008046314,0.;                       0000055P0000034
110,0.,2.008046314,0.,0.,0.,0.;                                  0000057P0000035
510,61,1,1,69;                                                   0000059P0000036
192,63,65,6.096,67;                                              0000061P0000037
116,0.,1.69197989E-16,0.762,0;                                   0000063P0000038
123,0.,-2.220446049E-16,-1.;                                     0000065P0000039
123,1.,0.,0.;                                                    0000067P0000040
508,4,0,19,3,1,1,0,71,0,19,4,1,1,0,73,0,19,5,0,1,0,75,0,19,4,0,  0000069P0000041
1,0,77;                                                          0000069P0000042
110,0.,0.,0.,360.,0.,0.;                                         0000071P0000043
110,360.,0.,0.,360.,3.302,0.;                                    0000073P0000044
110,360.,3.302,0.,0.,3.302,0.;                                   0000075P0000045
110,0.,3.302,0.,0.,0.,0.;                                        0000077P0000046
510,81,1,1,89;                                                   0000079P0000047
190,83,85,87;                                                    0000081P0000048
116,0.,-5.639932965E-16,-2.54,0;                                 0000083P0000049
123,0.,-2.220446049E-16,-1.;                                     0000085P0000050
123,1.,0.,0.;                                                    0000087P0000051
508,1,0,19,5,1,0;                                                0000089P0000052
S      1G      4D     90P     52                                        T0000001
