                                                                        S0000001
,,31HOpen CASCADE IGES processor 7.6,13HFilename.iges,                  G0000001
16HOpen CASCADE 7.6,31HOpen CASCADE IGES processor 7.6,32,308,15,308,15,G0000002
,1.,2,2HMM,1,0.01,15H20231123.131606,1E-07,6.371689,,,11,0,             G0000003
15H20231123.131606,;                                                    G0000004
     402       1       0       0       0       0       0       000000000D0000001
     402       0       0       1       1                               0D0000002
     186       2       0       0       0       0       0       000020000D0000003
     186       0       0       1       0                               0D0000004
     514       3       0       0       0       0       0       000010000D0000005
     514       0       0       2       1                               0D0000006
     510       5       0       0       0       0       0       000010000D0000007
     510       0       0       1       1                               0D0000008
     192       6       0       0       0       0       0       000010000D0000009
     192       0       0       1       1                               0D0000010
     116       7       0       0       0       0       0       000010400D0000011
     116       0       0       1       0                               0D0000012
     123       8       0       0       0       0       0       000010200D0000013
     123       0       0       1       0                               0D0000014
     123       9       0       0       0       0       0       000010200D0000015
     123       0       0       1       0                               0D0000016
     508      10       0       0       0       0       0       000010000D0000017
     508       0       0       2       1                               0D0000018
     504      12       0       0       0       0       0       000010001D0000019
     504       0       0       6       1                               0D0000020
     110      18       0       0       0       0       0       000010000D0000021
     110       0       0       1       0                               0D0000022
     502      19       0       0       0       0       0       000010000D0000023
     502       0       0       5       1                               0D0000024
     100      24       0       0       0       0      27       000010000D0000025
     100       0       0       1       0                               0D0000026
     124      25       0       0       0       0       0       000000000D0000027
     124       0       0       1       0                               0D0000028
     100      26       0       0       0       0       0       000010000D0000029
     100       0       0       1       0                               0D0000030
     100      27       0       0       0       0      33       000010000D0000031
     100       0       0       1       0                               0D0000032
     124      28       0       0       0       0       0       000000000D0000033
     124       0       0       1       0                               0D0000034
     100      29       0       0       0       0      37       000010000D0000035
     100       0       0       1       0                               0D0000036
     124      30       0       0       0       0       0       000000000D0000037
     124       0       0       1       0                               0D0000038
     100      31       0       0       0       0      41       000010000D0000039
     100       0       0       1       0                               0D0000040
     124      32       0       0       0       0       0       000000000D0000041
     124       0       0       1       0                               0D0000042
     100      33       0       0       0       0       0       000010000D0000043
     100       0       0       1       0                               0D0000044
     100      34       0       0       0       0      47       000010000D0000045
     100       0       0       1       0                               0D0000046
     124      35       0       0       0       0       0       000000000D0000047
     124       0       0       1       0                               0D0000048
     100      36       0       0       0       0      51       000010000D0000049
     100       0       0       1       0                               0D0000050
     124      37       0       0       0       0       0       000000000D0000051
     124       0       0       1       0                               0D0000052
     100      38       0       0       0       0      55       000010000D0000053
     100       0       0       1       0                               0D0000054
     124      39       0       0       0       0       0       000000000D0000055
     124       0       0       1       0                               0D0000056
     100      40       0       0       0       0      59       000010000D0000057
     100       0       0       1       0                               0D0000058
     124      41       0       0       0       0       0       000000000D0000059
     124       0       0       1       0                               0D0000060
     110      42       0       0       0       0       0       000010000D0000061
     110       0       0       1       0                               0D0000062
     100      43       0       0       0       0      65       000010000D0000063
     100       0       0       1       0                               0D0000064
     124      44       0       0       0       0       0       000000000D0000065
     124       0       0       1       0                               0D0000066
     110      45       0       0       0       0       0       000010000D0000067
     110       0       0       1       0                               0D0000068
     100      46       0       0       0       0      71       000010000D0000069
     100       0       0       1       0                               0D0000070
     124      47       0       0       0       0       0       000000000D0000071
     124       0       0       1       0                               0D0000072
     110      48       0       0       0       0       0       000010000D0000073
     110       0       0       1       0                               0D0000074
     100      49       0       0       0       0      77       000010000D0000075
     100       0       0       1       0                               0D0000076
     124      50       0       0       0       0       0       000000000D0000077
     124       0       0       1       0                               0D0000078
     110      51       0       0       0       0       0       000010000D0000079
     110       0       0       1       0                               0D0000080
     110      52       0       0       0       0       0       000010000D0000081
     110       0       0       1       0                               0D0000082
     100      53       0       0       0       0      85       000010000D0000083
     100       0       0       1       0                               0D0000084
     124      54       0       0       0       0       0       000000000D0000085
     124       0       0       1       0                               0D0000086
     110      55       0       0       0       0       0       000010000D0000087
     110       0       0       1       0                               0D0000088
     100      56       0       0       0       0      91       000010000D0000089
     100       0       0       1       0                               0D0000090
     124      57       0       0       0       0       0       000000000D0000091
     124       0       0       1       0                               0D0000092
     110      58       0       0       0       0       0       000010000D0000093
     110       0       0       1       0                               0D0000094
     100      59       0       0       0       0      97       000010000D0000095
     100       0       0       1       0                               0D0000096
     124      60       0       0       0       0       0       000000000D0000097
     124       0       0       1       0                               0D0000098
     110      61       0       0       0       0       0       000010000D0000099
     110       0       0       1       0                               0D0000100
     110      62       0       0       0       0       0       000010000D0000101
     110       0       0       1       0                               0D0000102
     110      63       0       0       0       0       0       000010000D0000103
     110       0       0       1       0                               0D0000104
     110      64       0       0       0       0       0       000010000D0000105
     110       0       0       1       0                               0D0000106
     510      65       0       0       0       0       0       000010000D0000107
     510       0       0       1       1                               0D0000108
     190      66       0       0       0       0       0       000010000D0000109
     190       0       0       1       1                               0D0000110
     116      67       0       0       0       0       0       000010400D0000111
     116       0       0       1       0                               0D0000112
     123      68       0       0       0       0       0       000010200D0000113
     123       0       0       1       0                               0D0000114
     123      69       0       0       0       0       0       000010200D0000115
     123       0       0       1       0                               0D0000116
     508      70       0       0       0       0       0       000010000D0000117
     508       0       0       1       1                               0D0000118
     508      71       0       0       0       0       0       000010000D0000119
     508       0       0       1       1                               0D0000120
     508      72       0       0       0       0       0       000010000D0000121
     508       0       0       1       1                               0D0000122
     508      73       0       0       0       0       0       000010000D0000123
     508       0       0       1       1                               0D0000124
     508      74       0       0       0       0       0       000010000D0000125
     508       0       0       1       1                               0D0000126
     508      75       0       0       0       0       0       000010000D0000127
     508       0       0       1       1                               0D0000128
     508      76       0       0       0       0       0       000010000D0000129
     508       0       0       1       1                               0D0000130
     508      77       0       0       0       0       0       000010000D0000131
     508       0       0       1       1                               0D0000132
     510      78       0       0       0       0       0       000010000D0000133
     510       0       0       1       1                               0D0000134
     190      79       0       0       0       0       0       000010000D0000135
     190       0       0       1       1                               0D0000136
     116      80       0       0       0       0       0       000010400D0000137
     116       0       0       1       0                               0D0000138
     123      81       0       0       0       0       0       000010200D0000139
     123       0       0       1       0                               0D0000140
     123      82       0       0       0       0       0       000010200D0000141
     123       0       0       1       0                               0D0000142
     508      83       0       0       0       0       0       000010000D0000143
     508       0       0       1       1                               0D0000144
     508      84       0       0       0       0       0       000010000D0000145
     508       0       0       1       1                               0D0000146
     510      85       0       0       0       0       0       000010000D0000147
     510       0       0       1       1                               0D0000148
     192      86       0       0       0       0       0       000010000D0000149
     192       0       0       1       1                               0D0000150
     116      87       0       0       0       0       0       000010400D0000151
     116       0       0       1       0                               0D0000152
     123      88       0       0       0       0       0       000010200D0000153
     123       0       0       1       0                               0D0000154
     123      89       0       0       0       0       0       000010200D0000155
     123       0       0       1       0                               0D0000156
     508      90       0       0       0       0       0       000010000D0000157
     508       0       0       2       1                               0D0000158
     110      92       0       0       0       0       0       000010000D0000159
     110       0       0       1       0                               0D0000160
     110      93       0       0       0       0       0       000010000D0000161
     110       0       0       1       0                               0D0000162
     110      94       0       0       0       0       0       000010000D0000163
     110       0       0       1       0                               0D0000164
     110      95       0       0       0       0       0       000010000D0000165
     110       0       0       1       0                               0D0000166
     510      96       0       0       0       0       0       000010000D0000167
     510       0       0       1       1                               0D0000168
     192      97       0       0       0       0       0       000010000D0000169
     192       0       0       1       1                               0D0000170
     116      98       0       0       0       0       0       000010400D0000171
     116       0       0       1       0                               0D0000172
     123      99       0       0       0       0       0       000010200D0000173
     123       0       0       1       0                               0D0000174
     123     100       0       0       0       0       0       000010200D0000175
     123       0       0       1       0                               0D0000176
     508     101       0       0       0       0       0       000010000D0000177
     508       0       0       2       1                               0D0000178
     110     103       0       0       0       0       0       000010000D0000179
     110       0       0       1       0                               0D0000180
     110     104       0       0       0       0       0       000010000D0000181
     110       0       0       1       0                               0D0000182
     110     105       0       0       0       0       0       000010000D0000183
     110       0       0       1       0                               0D0000184
     110     106       0       0       0       0       0       000010000D0000185
     110       0       0       1       0                               0D0000186
     510     107       0       0       0       0       0       000010000D0000187
     510       0       0       1       1                               0D0000188
     192     108       0       0       0       0       0       000010000D0000189
     192       0       0       1       1                               0D0000190
     116     109       0       0       0       0       0       000010400D0000191
     116       0       0       1       0                               0D0000192
     123     110       0       0       0       0       0       000010200D0000193
     123       0       0       1       0                               0D0000194
     123     111       0       0       0       0       0       000010200D0000195
     123       0       0       1       0                               0D0000196
     508     112       0       0       0       0       0       000010000D0000197
     508       0       0       2       1                               0D0000198
     110     114       0       0       0       0       0       000010000D0000199
     110       0       0       1       0                               0D0000200
     110     115       0       0       0       0       0       000010000D0000201
     110       0       0       1       0                               0D0000202
     110     116       0       0       0       0       0       000010000D0000203
     110       0       0       1       0                               0D0000204
     110     117       0       0       0       0       0       000010000D0000205
     110       0       0       1       0                               0D0000206
     510     118       0       0       0       0       0       000010000D0000207
     510       0       0       1       1                               0D0000208
     192     119       0       0       0       0       0       000010000D0000209
     192       0       0       1       1                               0D0000210
     116     120       0       0       0       0       0       000010400D0000211
     116       0       0       1       0                               0D0000212
     123     121       0       0       0       0       0       000010200D0000213
     123       0       0       1       0                               0D0000214
     123     122       0       0       0       0       0       000010200D0000215
     123       0       0       1       0                               0D0000216
     508     123       0       0       0       0       0       000010000D0000217
     508       0       0       2       1                               0D0000218
     110     125       0       0       0       0       0       000010000D0000219
     110       0       0       1       0                               0D0000220
     110     126       0       0       0       0       0       000010000D0000221
     110       0       0       1       0                               0D0000222
     110     127       0       0       0       0       0       000010000D0000223
     110       0       0       1       0                               0D0000224
     110     128       0       0       0       0       0       000010000D0000225
     110       0       0       1       0                               0D0000226
     510     129       0       0       0       0       0       000010000D0000227
     510       0       0       1       1                               0D0000228
     192     130       0       0       0       0       0       000010000D0000229
     192       0       0       1       1                               0D0000230
     116     131       0       0       0       0       0       000010400D0000231
     116       0       0       1       0                               0D0000232
     123     132       0       0       0       0       0       000010200D0000233
     123       0       0       1       0                               0D0000234
     123     133       0       0       0       0       0       000010200D0000235
     123       0       0       1       0                               0D0000236
     508     134       0       0       0       0       0       000010000D0000237
     508       0       0       2       1                               0D0000238
     110     136       0       0       0       0       0       000010000D0000239
     110       0       0       1       0                               0D0000240
     110     137       0       0       0       0       0       000010000D0000241
     110       0       0       1       0                               0D0000242
     110     138       0       0       0       0       0       000010000D0000243
     110       0       0       1       0                               0D0000244
     110     139       0       0       0       0       0       000010000D0000245
     110       0       0       1       0                               0D0000246
     510     140       0       0       0       0       0       000010000D0000247
     510       0       0       1       1                               0D0000248
     192     141       0       0       0       0       0       000010000D0000249
     192       0       0       1       1                               0D0000250
     116     142       0       0       0       0       0       000010400D0000251
     116       0       0       1       0                               0D0000252
     123     143       0       0       0       0       0       000010200D0000253
     123       0       0       1       0                               0D0000254
     123     144       0       0       0       0       0       000010200D0000255
     123       0       0       1       0                               0D0000256
     508     145       0       0       0       0       0       000010000D0000257
     508       0       0       2       1                               0D0000258
     110     147       0       0       0       0       0       000010000D0000259
     110       0       0       1       0                               0D0000260
     110     148       0       0       0       0       0       000010000D0000261
     110       0       0       1       0                               0D0000262
     110     149       0       0       0       0       0       000010000D0000263
     110       0       0       1       0                               0D0000264
     110     150       0       0       0       0       0       000010000D0000265
     110       0       0       1       0                               0D0000266
     510     151       0       0       0       0       0       000010000D0000267
     510       0       0       1       1                               0D0000268
     192     152       0       0       0       0       0       000010000D0000269
     192       0       0       1       1                               0D0000270
     116     153       0       0       0       0       0       000010400D0000271
     116       0       0       1       0                               0D0000272
     123     154       0       0       0       0       0       000010200D0000273
     123       0       0       1       0                               0D0000274
     123     155       0       0       0       0       0       000010200D0000275
     123       0       0       1       0                               0D0000276
     508     156       0       0       0       0       0       000010000D0000277
     508       0       0       2       1                               0D0000278
     110     158       0       0       0       0       0       000010000D0000279
     110       0       0       1       0                               0D0000280
     110     159       0       0       0       0       0       000010000D0000281
     110       0       0       1       0                               0D0000282
     110     160       0       0       0       0       0       000010000D0000283
     110       0       0       1       0                               0D0000284
     110     161       0       0       0       0       0       000010000D0000285
     110       0       0       1       0                               0D0000286
     510     162       0       0       0       0       0       000010000D0000287
     510       0       0       1       1                               0D0000288
     190     163       0       0       0       0       0       000010000D0000289
     190       0       0       1       1                               0D0000290
     116     164       0       0       0       0       0       000010400D0000291
     116       0       0       1       0                               0D0000292
     123     165       0       0       0       0       0       000010200D0000293
     123       0       0       1       0                               0D0000294
     123     166       0       0       0       0       0       000010200D0000295
     123       0       0       1       0                               0D0000296
     508     167       0       0       0       0       0       000010000D0000297
     508       0       0       1       1                               0D0000298
     510     168       0       0       0       0       0       000010000D0000299
     510       0       0       1       1                               0D0000300
     190     169       0       0       0       0       0       000010000D0000301
     190       0       0       1       1                               0D0000302
     116     170       0       0       0       0       0       000010400D0000303
     116       0       0       1       0                               0D0000304
     123     171       0       0       0       0       0       000010200D0000305
     123       0       0       1       0                               0D0000306
     123     172       0       0       0       0       0       000010200D0000307
     123       0       0       1       0                               0D0000308
     508     173       0       0       0       0       0       000010000D0000309
     508       0       0       1       1                               0D0000310
     510     174       0       0       0       0       0       000010000D0000311
     510       0       0       1       1                               0D0000312
     190     175       0       0       0       0       0       000010000D0000313
     190       0       0       1       1                               0D0000314
     116     176       0       0       0       0       0       000010400D0000315
     116       0       0       1       0                               0D0000316
     123     177       0       0       0       0       0       000010200D0000317
     123       0       0       1       0                               0D0000318
     123     178       0       0       0       0       0       000010200D0000319
     123       0       0       1       0                               0D0000320
     508     179       0       0       0       0       0       000010000D0000321
     508       0       0       1       1                               0D0000322
     510     180       0       0       0       0       0       000010000D0000323
     510       0       0       1       1                               0D0000324
     190     181       0       0       0       0       0       000010000D0000325
     190       0       0       1       1                               0D0000326
     116     182       0       0       0       0       0       000010400D0000327
     116       0       0       1       0                               0D0000328
     123     183       0       0       0       0       0       000010200D0000329
     123       0       0       1       0                               0D0000330
     123     184       0       0       0       0       0       000010200D0000331
     123       0       0       1       0                               0D0000332
     508     185       0       0       0       0       0       000010000D0000333
     508       0       0       1       1                               0D0000334
     510     186       0       0       0       0       0       000010000D0000335
     510       0       0       1       1                               0D0000336
     190     187       0       0       0       0       0       000010000D0000337
     190       0       0       1       1                               0D0000338
     116     188       0       0       0       0       0       000010400D0000339
     116       0       0       1       0                               0D0000340
     123     189       0       0       0       0       0       000010200D0000341
     123       0       0       1       0                               0D0000342
     123     190       0       0       0       0       0       000010200D0000343
     123       0       0       1       0                               0D0000344
     508     191       0       0       0       0       0       000010000D0000345
     508       0       0       1       1                               0D0000346
     510     192       0       0       0       0       0       000010000D0000347
     510       0       0       1       1                               0D0000348
     190     193       0       0       0       0       0       000010000D0000349
     190       0       0       1       1                               0D0000350
     116     194       0       0       0       0       0       000010400D0000351
     116       0       0       1       0                               0D0000352
     123     195       0       0       0       0       0       000010200D0000353
     123       0       0       1       0                               0D0000354
     123     196       0       0       0       0       0       000010200D0000355
     123       0       0       1       0                               0D0000356
     508     197       0       0       0       0       0       000010000D0000357
     508       0       0       1       1                               0D0000358
402,1,3;                                                         0000001P0000001
186,5,1,0;                                                       0000003P0000002
514,16,7,1,107,1,133,0,147,0,167,1,187,1,207,0,227,0,247,0,267,  0000005P0000003
1,287,1,299,1,311,1,323,1,335,1,347,1;                           0000005P0000004
510,9,1,1,17;                                                    0000007P0000005
192,11,13,6.35,15;                                               0000009P0000006
116,0.,0.,0.,0;                                                  0000011P0000007
123,0.,0.,1.;                                                    0000013P0000008
123,1.,0.,0.;                                                    0000015P0000009
508,4,0,19,1,1,1,0,99,0,19,2,1,1,0,101,0,19,1,0,1,0,103,0,19,3,  0000017P0000010
0,1,0,105;                                                       0000017P0000011
504,24,21,23,1,23,2,25,23,2,23,2,29,23,1,23,1,31,23,3,23,3,35,   0000019P0000012
23,4,23,4,39,23,5,23,5,43,23,6,23,6,45,23,7,23,7,49,23,8,23,8,   0000019P0000013
53,23,9,23,9,57,23,10,23,10,61,23,3,23,11,63,23,11,23,11,67,23,  0000019P0000014
4,23,12,69,23,12,23,12,73,23,5,23,13,75,23,13,23,13,79,23,6,23,  0000019P0000015
10,81,23,7,23,14,83,23,14,23,14,87,23,8,23,15,89,23,15,23,15,93, 0000019P0000016
23,9,23,16,95,23,16,23,16;                                       0000019P0000017
110,6.35,0.,0.,6.35,0.,-2.54;                                    0000021P0000018
502,16,6.35,0.,0.,6.35,0.,-2.54,-1.3335,-3.84948292,0.,2.8575,   0000023P0000019
-3.84948292,0.,-3.81,0.,0.,2.54,0.,0.,-1.3335,3.84948292,0.,     0000023P0000020
5.334,0.,0.,2.8575,3.84948292,0.,2.54,0.,-2.54,-1.3335,          0000023P0000021
-3.84948292,-1.27,2.8575,-3.84948292,0.762,-3.81,0.,0.762,       0000023P0000022
-1.3335,3.84948292,-1.27,5.334,0.,-1.27,2.8575,3.84948292,0.762; 0000023P0000023
100,0.,0.,0.,6.35,0.,6.35,0.;                                    0000025P0000024
124,1.,0.,0.,0.,0.,1.,0.,0.,0.,0.,1.,-2.54;                      0000027P0000025
100,0.,0.,0.,6.35,0.,6.35,0.;                                    0000029P0000026
100,0.,0.,0.,0.889,0.,0.889,0.;                                  0000031P0000027
124,1.,0.,0.,-2.2225,0.,1.,0.,-3.84948292,0.,0.,1.,0.;           0000033P0000028
100,0.,0.,0.,0.635,0.,0.635,0.;                                  0000035P0000029
124,1.,0.,0.,2.2225,0.,1.,0.,-3.84948292,0.,0.,1.,0.;            0000037P0000030
100,0.,0.,0.,0.635,0.,0.635,0.;                                  0000039P0000031
124,1.,0.,0.,-4.445,0.,1.,0.,0.,0.,0.,1.,0.;                     0000041P0000032
100,0.,0.,0.,2.54,0.,2.54,0.;                                    0000043P0000033
100,0.,0.,0.,0.889,0.,0.889,0.;                                  0000045P0000034
124,1.,0.,0.,-2.2225,0.,1.,0.,3.84948292,0.,0.,1.,0.;            0000047P0000035
100,0.,0.,0.,0.889,0.,0.889,0.;                                  0000049P0000036
124,1.,0.,0.,4.445,0.,1.,0.,0.,0.,0.,1.,0.;                      0000051P0000037
100,0.,0.,0.,0.635,0.,0.635,0.;                                  0000053P0000038
124,1.,0.,0.,2.2225,0.,1.,0.,3.84948292,0.,0.,1.,0.;             0000055P0000039
100,0.,0.,0.,2.54,0.,2.54,0.;                                    0000057P0000040
124,1.,0.,0.,0.,0.,1.,0.,0.,0.,0.,1.,-2.54;                      0000059P0000041
110,-1.3335,-3.84948292,0.,-1.3335,-3.84948292,-1.27;            0000061P0000042
100,0.,0.,0.,0.889,0.,0.889,0.;                                  0000063P0000043
124,1.,0.,0.,-2.2225,0.,1.,0.,-3.84948292,0.,0.,1.,-1.27;        0000065P0000044
110,2.8575,-3.84948292,0.,2.8575,-3.84948292,0.762;              0000067P0000045
100,0.,0.,0.,0.635,0.,0.635,0.;                                  0000069P0000046
124,1.,0.,0.,2.2225,0.,1.,0.,-3.84948292,0.,0.,1.,0.762;         0000071P0000047
110,-3.81,0.,0.,-3.81,0.,0.762;                                  0000073P0000048
100,0.,0.,0.,0.635,0.,0.635,0.;                                  0000075P0000049
124,1.,0.,0.,-4.445,0.,1.,0.,0.,0.,0.,1.,0.762;                  0000077P0000050
110,2.54,0.,0.,2.54,0.,-2.54;                                    0000079P0000051
110,-1.3335,3.84948292,0.,-1.3335,3.84948292,-1.27;              0000081P0000052
100,0.,0.,0.,0.889,0.,0.889,0.;                                  0000083P0000053
124,1.,0.,0.,-2.2225,0.,1.,0.,3.84948292,0.,0.,1.,-1.27;         0000085P0000054
110,5.334,0.,0.,5.334,0.,-1.27;                                  0000087P0000055
100,0.,0.,0.,0.889,0.,0.889,0.;                                  0000089P0000056
124,1.,0.,0.,4.445,0.,1.,0.,0.,0.,0.,1.,-1.27;                   0000091P0000057
110,2.8575,3.84948292,0.,2.8575,3.84948292,0.762;                0000093P0000058
100,0.,0.,0.,0.635,0.,0.635,0.;                                  0000095P0000059
124,1.,0.,0.,2.2225,0.,1.,0.,3.84948292,0.,0.,1.,0.762;          0000097P0000060
110,0.,0.,0.,0.,-2.54,0.;                                        0000099P0000061
110,0.,-2.54,0.,360.,-2.54,0.;                                   0000101P0000062
110,360.,-2.54,0.,360.,0.,0.;                                    0000103P0000063
110,360.,0.,0.,0.,0.,0.;                                         0000105P0000064
510,109,8,1,117,119,121,123,125,127,129,131;                     0000107P0000065
190,111,113,115;                                                 0000109P0000066
116,-1.922722346E-17,5.087374677E-16,0.,0;                       0000111P0000067
123,0.,0.,1.;                                                    0000113P0000068
123,1.,0.,0.;                                                    0000115P0000069
508,1,0,19,3,1,0;                                                0000117P0000070
508,1,0,19,4,0,0;                                                0000119P0000071
508,1,0,19,5,0,0;                                                0000121P0000072
508,1,0,19,6,0,0;                                                0000123P0000073
508,1,0,19,7,0,0;                                                0000125P0000074
508,1,0,19,8,0,0;                                                0000127P0000075
508,1,0,19,9,0,0;                                                0000129P0000076
508,1,0,19,10,0,0;                                               0000131P0000077
510,135,2,1,143,145;                                             0000133P0000078
190,137,139,141;                                                 0000135P0000079
116,-1.922722346E-17,5.087374677E-16,-2.54,0;                    0000137P0000080
123,0.,0.,1.;                                                    0000139P0000081
123,1.,0.,0.;                                                    0000141P0000082
508,1,0,19,2,1,0;                                                0000143P0000083
508,1,0,19,11,0,0;                                               0000145P0000084
510,149,1,1,157;                                                 0000147P0000085
192,151,153,0.889,155;                                           0000149P0000086
116,-2.2225,-3.84948292,0.,0;                                    0000151P0000087
123,0.,0.,1.;                                                    0000153P0000088
123,1.,0.,0.;                                                    0000155P0000089
508,4,0,19,12,1,1,0,159,0,19,13,1,1,0,161,0,19,12,0,1,0,163,0,   0000157P0000090
19,4,0,1,0,165;                                                  0000157P0000091
110,0.,0.,0.,0.,-1.27,0.;                                        0000159P0000092
110,0.,-1.27,0.,360.,-1.27,0.;                                   0000161P0000093
110,360.,-1.27,0.,360.,0.,0.;                                    0000163P0000094
110,360.,0.,0.,0.,0.,0.;                                         0000165P0000095
510,169,1,1,177;                                                 0000167P0000096
192,171,173,0.635,175;                                           0000169P0000097
116,2.2225,-3.84948292,0.,0;                                     0000171P0000098
123,-0.,-0.,-1.;                                                 0000173P0000099
123,1.,0.,0.;                                                    0000175P0000100
508,4,0,19,14,0,1,0,179,0,19,5,1,1,0,181,0,19,14,1,1,0,183,0,19, 0000177P0000101
15,0,1,0,185;                                                    0000177P0000102
110,0.,-0.762,0.,0.,0.,0.;                                       0000179P0000103
110,0.,0.,0.,-360.,0.,0.;                                        0000181P0000104
110,-360.,0.,0.,-360.,-0.762,0.;                                 0000183P0000105
110,-360.,-0.762,0.,0.,-0.762,0.;                                0000185P0000106
510,189,1,1,197;                                                 0000187P0000107
192,191,193,0.635,195;                                           0000189P0000108
116,-4.445,0.,0.,0;                                              0000191P0000109
123,-0.,-0.,-1.;                                                 0000193P0000110
123,1.,0.,0.;                                                    0000195P0000111
508,4,0,19,16,0,1,0,199,0,19,6,1,1,0,201,0,19,16,1,1,0,203,0,19, 0000197P0000112
17,0,1,0,205;                                                    0000197P0000113
110,0.,-0.762,0.,0.,0.,0.;                                       0000199P0000114
110,0.,0.,0.,-360.,0.,0.;                                        0000201P0000115
110,-360.,0.,0.,-360.,-0.762,0.;                                 0000203P0000116
110,-360.,-0.762,0.,0.,-0.762,0.;                                0000205P0000117
510,209,1,1,217;                                                 0000207P0000118
192,211,213,2.54,215;                                            0000209P0000119
116,0.,0.,0.,0;                                                  0000211P0000120
123,0.,0.,1.;                                                    0000213P0000121
123,1.,0.,0.;                                                    0000215P0000122
508,4,0,19,18,1,1,0,219,0,19,11,1,1,0,221,0,19,18,0,1,0,223,0,   0000217P0000123
19,7,0,1,0,225;                                                  0000217P0000124
110,0.,0.,0.,0.,-2.54,0.;                                        0000219P0000125
110,0.,-2.54,0.,360.,-2.54,0.;                                   0000221P0000126
110,360.,-2.54,0.,360.,0.,0.;                                    0000223P0000127
110,360.,0.,0.,0.,0.,0.;                                         0000225P0000128
510,229,1,1,237;                                                 0000227P0000129
192,231,233,0.889,235;                                           0000229P0000130
116,-2.2225,3.84948292,0.,0;                                     0000231P0000131
123,0.,0.,1.;                                                    0000233P0000132
123,1.,0.,0.;                                                    0000235P0000133
508,4,0,19,19,1,1,0,239,0,19,20,1,1,0,241,0,19,19,0,1,0,243,0,   0000237P0000134
19,8,0,1,0,245;                                                  0000237P0000135
110,0.,0.,0.,0.,-1.27,0.;                                        0000239P0000136
110,0.,-1.27,0.,360.,-1.27,0.;                                   0000241P0000137
110,360.,-1.27,0.,360.,0.,0.;                                    0000243P0000138
110,360.,0.,0.,0.,0.,0.;                                         0000245P0000139
510,249,1,1,257;                                                 0000247P0000140
192,251,253,0.889,255;                                           0000249P0000141
116,4.445,0.,0.,0;                                               0000251P0000142
123,0.,0.,1.;                                                    0000253P0000143
123,1.,0.,0.;                                                    0000255P0000144
508,4,0,19,21,1,1,0,259,0,19,22,1,1,0,261,0,19,21,0,1,0,263,0,   0000257P0000145
19,9,0,1,0,265;                                                  0000257P0000146
110,0.,0.,0.,0.,-1.27,0.;                                        0000259P0000147
110,0.,-1.27,0.,360.,-1.27,0.;                                   0000261P0000148
110,360.,-1.27,0.,360.,0.,0.;                                    0000263P0000149
110,360.,0.,0.,0.,0.,0.;                                         0000265P0000150
510,269,1,1,277;                                                 0000267P0000151
192,271,273,0.635,275;                                           0000269P0000152
116,2.2225,3.84948292,0.,0;                                      0000271P0000153
123,-0.,-0.,-1.;                                                 0000273P0000154
123,1.,0.,0.;                                                    0000275P0000155
508,4,0,19,23,0,1,0,279,0,19,10,1,1,0,281,0,19,23,1,1,0,283,0,   0000277P0000156
19,24,0,1,0,285;                                                 0000277P0000157
110,0.,-0.762,0.,0.,0.,0.;                                       0000279P0000158
110,0.,0.,0.,-360.,0.,0.;                                        0000281P0000159
110,-360.,0.,0.,-360.,-0.762,0.;                                 0000283P0000160
110,-360.,-0.762,0.,0.,-0.762,0.;                                0000285P0000161
510,289,1,1,297;                                                 0000287P0000162
190,291,293,295;                                                 0000289P0000163
116,-8.492023695E-16,-5.12725959E-16,-1.27,0;                    0000291P0000164
123,0.,0.,1.;                                                    0000293P0000165
123,1.,0.,0.;                                                    0000295P0000166
508,1,0,19,13,1,0;                                               0000297P0000167
510,301,1,1,309;                                                 0000299P0000168
190,303,305,307;                                                 0000301P0000169
116,9.421339496E-16,1.390769164E-15,0.762,0;                     0000303P0000170
123,0.,0.,1.;                                                    0000305P0000171
123,1.,0.,0.;                                                    0000307P0000172
508,1,0,19,15,1,0;                                               0000309P0000173
510,313,1,1,321;                                                 0000311P0000174
190,315,317,319;                                                 0000313P0000175
116,9.421339496E-16,1.390769164E-15,0.762,0;                     0000315P0000176
123,0.,0.,1.;                                                    0000317P0000177
123,1.,0.,0.;                                                    0000319P0000178
508,1,0,19,17,1,0;                                               0000321P0000179
510,325,1,1,333;                                                 0000323P0000180
190,327,329,331;                                                 0000325P0000181
116,-8.492023695E-16,-5.12725959E-16,-1.27,0;                    0000327P0000182
123,0.,0.,1.;                                                    0000329P0000183
123,1.,0.,0.;                                                    0000331P0000184
508,1,0,19,20,1,0;                                               0000333P0000185
510,337,1,1,345;                                                 0000335P0000186
190,339,341,343;                                                 0000337P0000187
116,-8.492023695E-16,-5.12725959E-16,-1.27,0;                    0000339P0000188
123,0.,0.,1.;                                                    0000341P0000189
123,1.,0.,0.;                                                    0000343P0000190
508,1,0,19,22,1,0;                                               0000345P0000191
510,349,1,1,357;                                                 0000347P0000192
190,351,353,355;                                                 0000349P0000193
116,9.421339496E-16,1.390769164E-15,0.762,0;                     0000351P0000194
123,0.,0.,1.;                                                    0000353P0000195
123,1.,0.,0.;                                                    0000355P0000196
508,1,0,19,24,1,0;                                               0000357P0000197
S      1G      4D    358P    197                                        T0000001
