                                                                        S0000001
,,31HOpen CASCADE IGES processor 7.6,13HFilename.iges,                  G0000001
16HOpen CASCADE 7.6,31HOpen CASCADE IGES processor 7.6,32,308,15,308,15,G0000002
,1.,2,2HMM,1,0.01,15H20231123.131606,1E-07,12.762806,,,11,0,            G0000003
15H20231123.131606,;                                                    G0000004
     402       1       0       0       0       0       0       000000000D0000001
     402       0       0       1       1                               0D0000002
     186       2       0       0       0       0       0       000020000D0000003
     186       0       0       1       0                               0D0000004
     514       3       0       0       0       0       0       000010000D0000005
     514       0       0       1       1                               0D0000006
     510       4       0       0       0       0       0       000010000D0000007
     510       0       0       1       1                               0D0000008
     196       5       0       0       0       0       0       000010000D0000009
     196       0       0       1       1                               0D0000010
     116       6       0       0       0       0       0       000010400D0000011
     116       0       0       1       0                               0D0000012
     123       7       0       0       0       0       0       000010200D0000013
     123       0       0       1       0                               0D0000014
     123       8       0       0       0       0       0       000010200D0000015
     123       0       0       1       0                               0D0000016
     508       9       0       0       0       0       0       000010000D0000017
     508       0       0       2       1                               0D0000018
     504      11       0       0       0       0       0       000010001D0000019
     504       0       0       3       1                               0D0000020
     100      14       0       0       0       0      23       000010000D0000021
     100       0       0       1       0                               0D0000022
     124      15       0       0       0       0       0       000000000D0000023
     124       0       0       2       0                               0D0000024
     502      17       0       0       0       0       0       000010000D0000025
     502       0       0       4       1                               0D0000026
     100      21       0       0       0       0      29       000010000D0000027
     100       0       0       1       0                               0D0000028
     124      22       0       0       0       0       0       000000000D0000029
     124       0       0       2       0                               0D0000030
     100      24       0       0       0       0      33       000010000D0000031
     100       0       0       1       0                               0D0000032
     124      25       0       0       0       0       0       000000000D0000033
     124       0       0       2       0                               0D0000034
     110      27       0       0       0       0       0       000010000D0000035
     110       0       0       2       0                               0D0000036
     100      29       0       0       0       0      39       000010000D0000037
     100       0       0       1       0                               0D0000038
     124      30       0       0       0       0       0       000000000D0000039
     124       0       0       2       0                               0D0000040
     110      32       0       0       0       0       0       000010000D0000041
     110       0       0       1       0                               0D0000042
     100      33       0       0       0       0      45       000010000D0000043
     100       0       0       1       0                               0D0000044
     124      34       0       0       0       0       0       000000000D0000045
     124       0       0       2       0                               0D0000046
     100      36       0       0       0       0      49       000010000D0000047
     100       0       0       1       0                               0D0000048
     124      37       0       0       0       0       0       000000000D0000049
     124       0       0       2       0                               0D0000050
     100      39       0       0       0       0      53       000010000D0000051
     100       0       0       1       0                               0D0000052
     124      40       0       0       0       0       0       000000000D0000053
     124       0       0       2       0                               0D0000054
     100      42       0       0       0       0      57       000010000D0000055
     100       0       0       1       0                               0D0000056
     124      43       0       0       0       0       0       000000000D0000057
     124       0       0       2       0                               0D0000058
     110      45       0       0       0       0       0       000010000D0000059
     110       0       0       2       0                               0D0000060
     110      47       0       0       0       0       0       000010000D0000061
     110       0       0       1       0                               0D0000062
     110      48       0       0       0       0       0       000010000D0000063
     110       0       0       1       0                               0D0000064
     110      49       0       0       0       0       0       000010000D0000065
     110       0       0       1       0                               0D0000066
     110      50       0       0       0       0       0       000010000D0000067
     110       0       0       1       0                               0D0000068
     510      51       0       0       0       0       0       000010000D0000069
     510       0       0       1       1                               0D0000070
     190      52       0       0       0       0       0       000010000D0000071
     190       0       0       1       1                               0D0000072
     116      53       0       0       0       0       0       000010400D0000073
     116       0       0       1       0                               0D0000074
     123      54       0       0       0       0       0       000010200D0000075
     123       0       0       1       0                               0D0000076
     123      55       0       0       0       0       0       000010200D0000077
     123       0       0       1       0                               0D0000078
     508      56       0       0       0       0       0       000010000D0000079
     508       0       0       1       1                               0D0000080
     510      57       0       0       0       0       0       000010000D0000081
     510       0       0       1       1                               0D0000082
     194      58       0       0       0       0       0       000010000D0000083
     194       0       0       1       1                               0D0000084
     116      59       0       0       0       0       0       000010400D0000085
     116       0       0       1       0                               0D0000086
     123      60       0       0       0       0       0       000010200D0000087
     123       0       0       1       0                               0D0000088
     123      61       0       0       0       0       0       000010200D0000089
     123       0       0       1       0                               0D0000090
     508      62       0       0       0       0       0       000010000D0000091
     508       0       0       2       1                               0D0000092
     110      64       0       0       0       0       0       000010000D0000093
     110       0       0       1       0                               0D0000094
     110      65       0       0       0       0       0       000010000D0000095
     110       0       0       1       0                               0D0000096
     110      66       0       0       0       0       0       000010000D0000097
     110       0       0       1       0                               0D0000098
     110      67       0       0       0       0       0       000010000D0000099
     110       0       0       1       0                               0D0000100
     510      68       0       0       0       0       0       000010000D0000101
     510       0       0       1       1                               0D0000102
     192      69       0       0       0       0       0       000010000D0000103
     192       0       0       1       1                               0D0000104
     116      70       0       0       0       0       0       000010400D0000105
     116       0       0       1       0                               0D0000106
     123      71       0       0       0       0       0       000010200D0000107
     123       0       0       1       0                               0D0000108
     123      72       0       0       0       0       0       000010200D0000109
     123       0       0       1       0                               0D0000110
     508      73       0       0       0       0       0       000010000D0000111
     508       0       0       2       1                               0D0000112
     110      75       0       0       0       0       0       000010000D0000113
     110       0       0       1       0                               0D0000114
     110      76       0       0       0       0       0       000010000D0000115
     110       0       0       1       0                               0D0000116
     110      77       0       0       0       0       0       000010000D0000117
     110       0       0       1       0                               0D0000118
     110      78       0       0       0       0       0       000010000D0000119
     110       0       0       1       0                               0D0000120
     510      79       0       0       0       0       0       000010000D0000121
     510       0       0       1       1                               0D0000122
     190      80       0       0       0       0       0       000010000D0000123
     190       0       0       1       1                               0D0000124
     116      81       0       0       0       0       0       000010400D0000125
     116       0       0       1       0                               0D0000126
     123      82       0       0       0       0       0       000010200D0000127
     123       0       0       1       0                               0D0000128
     123      83       0       0       0       0       0       000010200D0000129
     123       0       0       1       0                               0D0000130
     508      84       0       0       0       0       0       000010000D0000131
     508       0       0       1       1                               0D0000132
     508      85       0       0       0       0       0       000010000D0000133
     508       0       0       1       1                               0D0000134
     510      86       0       0       0       0       0       000010000D0000135
     510       0       0       1       1                               0D0000136
     120      87       0       0       0       0       0       000010000D0000137
     120       0       0       1       0                               0D0000138
     110      88       0       0       0       0       0       000010000D0000139
     110       0       0       1       0                               0D0000140
     100      89       0       0       0       0     143       000010000D0000141
     100       0       0       1       0                               0D0000142
     124      90       0       0       0       0       0       000000000D0000143
     124       0       0       2       0                               0D0000144
     508      92       0       0       0       0       0       000010000D0000145
     508       0       0       2       1                               0D0000146
     110      94       0       0       0       0       0       000010000D0000147
     110       0       0       1       0                               0D0000148
     110      95       0       0       0       0       0       000010000D0000149
     110       0       0       2       0                               0D0000150
     110      97       0       0       0       0       0       000010000D0000151
     110       0       0       1       0                               0D0000152
     110      98       0       0       0       0       0       000010000D0000153
     110       0       0       1       0                               0D0000154
     510      99       0       0       0       0       0       000010000D0000155
     510       0       0       1       1                               0D0000156
     194     100       0       0       0       0       0       000010000D0000157
     194       0       0       1       1                               0D0000158
     116     101       0       0       0       0       0       000010400D0000159
     116       0       0       1       0                               0D0000160
     123     102       0       0       0       0       0       000010200D0000161
     123       0       0       1       0                               0D0000162
     123     103       0       0       0       0       0       000010200D0000163
     123       0       0       1       0                               0D0000164
     508     104       0       0       0       0       0       000010000D0000165
     508       0       0       2       1                               0D0000166
     110     106       0       0       0       0       0       000010000D0000167
     110       0       0       1       0                               0D0000168
     110     107       0       0       0       0       0       000010000D0000169
     110       0       0       1       0                               0D0000170
     110     108       0       0       0       0       0       000010000D0000171
     110       0       0       1       0                               0D0000172
     110     109       0       0       0       0       0       000010000D0000173
     110       0       0       1       0                               0D0000174
402,1,3;                                                         0000001P0000001
186,5,1,0;                                                       0000003P0000002
514,7,7,1,69,1,81,0,101,0,121,1,135,0,155,1;                     0000005P0000003
510,9,1,1,17;                                                    0000007P0000004
196,11,2.54,13,15;                                               0000009P0000005
116,0.,2.255973186E-15,10.16,0;                                  0000011P0000006
123,0.,2.220446049E-16,1.;                                       0000013P0000007
123,1.,0.,0.;                                                    0000015P0000008
508,4,0,19,1,0,1,0,61,0,19,2,1,1,0,63,1,25,2,1,1,0,65,0,19,2,0,  0000017P0000009
1,0,67;                                                          0000017P0000010
504,11,21,25,1,25,1,27,25,1,25,2,31,25,3,25,3,35,25,3,25,4,37,   0000019P0000011
25,4,25,4,41,25,4,25,5,43,25,5,25,5,47,25,6,25,6,51,25,6,25,7,   0000019P0000012
55,25,7,25,7,59,25,1,25,7;                                       0000019P0000013
100,0.,0.,0.,2.36345036,0.,2.36345036,0.;                        0000021P0000014
124,1.,0.,0.,0.,0.,-1.,-2.220446049E-16,2.462570435E-15,0.,      0000023P0000015
2.220446049E-16,-1.,11.090431295;                                0000023P0000016
502,7,2.36345036,2.462570435E-15,11.090431295,1.555301435E-16,   0000025P0000017
2.819966483E-15,12.7,1.27,2.117025296E-15,9.534234336,2.54,      0000025P0000018
1.400706871E-15,6.308222943,2.54,0.,0.,6.35,0.,0.,5.99690072,    0000025P0000019
4.131944986E-16,1.86086259;                                      0000025P0000020
100,0.,0.,0.,2.36345036,0.930431295,1.555301435E-16,2.54;        0000027P0000021
124,1.,0.,0.,0.,0.,2.220446049E-16,-1.,2.255973186E-15,0.,1.,    0000029P0000022
2.220446049E-16,10.16;                                           0000029P0000023
100,0.,0.,0.,1.27,0.,1.27,0.;                                    0000031P0000024
124,1.,0.,0.,0.,0.,-1.,-2.220446049E-16,2.117025296E-15,0.,      0000033P0000025
2.220446049E-16,-1.,9.534234336;                                 0000033P0000026
110,1.27,2.117025296E-15,9.534234336,2.54,1.400706871E-15,       0000035P0000027
6.308222943;                                                     0000035P0000028
100,0.,0.,0.,2.54,0.,2.54,0.;                                    0000037P0000029
124,1.,0.,0.,0.,0.,-1.,-2.220446049E-16,1.400706871E-15,0.,      0000039P0000030
2.220446049E-16,-1.,6.308222943;                                 0000039P0000031
110,2.54,1.400706871E-15,6.308222943,2.54,0.,0.;                 0000041P0000032
100,0.,0.,0.,2.54,0.,2.54,0.;                                    0000043P0000033
124,1.,0.,0.,0.,0.,-1.,-2.220446049E-16,0.,0.,2.220446049E-16,   0000045P0000034
-1.,0.;                                                          0000045P0000035
100,0.,0.,0.,6.35,0.,6.35,0.;                                    0000047P0000036
124,1.,0.,0.,0.,0.,-1.,-2.220446049E-16,0.,0.,2.220446049E-16,   0000049P0000037
-1.,0.;                                                          0000049P0000038
100,0.,0.,0.,5.08,0.,4.72690072,1.86086259;                      0000051P0000039
124,1.,0.,0.,1.27,0.,2.220446049E-16,-1.,0.,0.,1.,               0000053P0000040
2.220446049E-16,0.;                                              0000053P0000041
100,0.,0.,0.,5.99690072,0.,5.99690072,0.;                        0000055P0000042
124,1.,0.,0.,0.,0.,-1.,-2.220446049E-16,4.131944986E-16,0.,      0000057P0000043
2.220446049E-16,-1.,1.86086259;                                  0000057P0000044
110,2.36345036,2.462570435E-15,11.090431295,5.99690072,          0000059P0000045
4.131944986E-16,1.86086259;                                      0000059P0000046
110,-360.,21.488319023,0.,0.,21.488319023,0.;                    0000061P0000047
110,0.,21.488319023,0.,0.,90.,0.;                                0000063P0000048
110,0.,90.,0.,-360.,90.,0.;                                      0000065P0000049
110,-360.,90.,0.,-360.,21.488319023,0.;                          0000067P0000050
510,71,1,1,79;                                                   0000069P0000051
190,73,75,77;                                                    0000071P0000052
116,0.,2.117025296E-15,9.534234336,0;                            0000073P0000053
123,0.,-2.220446049E-16,-1.;                                     0000075P0000054
123,1.,0.,0.;                                                    0000077P0000055
508,1,0,19,3,1,0;                                                0000079P0000056
510,83,1,1,91;                                                   0000081P0000057
194,85,87,1.27,21.488319023,89;                                  0000083P0000058
116,0.,2.117025296E-15,9.534234336,0;                            0000085P0000059
123,0.,-2.220446049E-16,-1.;                                     0000087P0000060
123,1.,0.,0.;                                                    0000089P0000061
508,4,0,19,3,1,1,0,93,0,19,4,1,1,0,95,0,19,5,0,1,0,97,0,19,4,0,  0000091P0000062
1,0,99;                                                          0000091P0000063
110,0.,0.,0.,360.,0.,0.;                                         0000093P0000064
110,360.,0.,0.,360.,3.466994304,0.;                              0000095P0000065
110,360.,3.466994304,0.,0.,3.466994304,0.;                       0000097P0000066
110,0.,3.466994304,0.,0.,0.,0.;                                  0000099P0000067
510,103,1,1,111;                                                 0000101P0000068
192,105,107,2.54,109;                                            0000103P0000069
116,0.,1.400706871E-15,6.308222943,0;                            0000105P0000070
123,0.,-2.220446049E-16,-1.;                                     0000107P0000071
123,1.,0.,0.;                                                    0000109P0000072
508,4,0,19,5,1,1,0,113,0,19,6,1,1,0,115,0,19,7,0,1,0,117,0,19,6, 0000111P0000073
0,1,0,119;                                                       0000111P0000074
110,0.,0.,0.,360.,0.,0.;                                         0000113P0000075
110,360.,0.,0.,360.,6.308222943,0.;                              0000115P0000076
110,360.,6.308222943,0.,0.,6.308222943,0.;                       0000117P0000077
110,0.,6.308222943,0.,0.,0.,0.;                                  0000119P0000078
510,123,2,1,131,133;                                             0000121P0000079
190,125,127,129;                                                 0000123P0000080
116,0.,0.,0.,0;                                                  0000125P0000081
123,0.,-2.220446049E-16,-1.;                                     0000127P0000082
123,1.,0.,0.;                                                    0000129P0000083
508,1,0,19,8,1,0;                                                0000131P0000084
508,1,0,19,7,0,0;                                                0000133P0000085
510,137,1,1,145;                                                 0000135P0000086
120,139,141,0.,6.283185307;                                      0000137P0000087
110,0.,0.,0.,0.,2.220446049E-16,1.;                              0000139P0000088
100,0.,0.,0.,5.08,0.,4.72690072,1.86086259;                      0000141P0000089
124,1.,0.,0.,1.27,0.,2.220446049E-16,-1.,0.,0.,1.,               0000143P0000090
2.220446049E-16,0.;                                              0000143P0000091
508,4,0,19,8,1,1,0,147,0,19,9,1,1,0,149,0,19,10,0,1,0,151,0,19,  0000145P0000092
9,0,1,0,153;                                                     0000145P0000093
110,0.,6.283185307,0.,-1.395147399E-15,0.,0.;                    0000147P0000094
110,-1.395147399E-15,1.776356839E-15,0.,0.375041918,             0000149P0000095
1.859632874E-15,0.;                                              0000149P0000096
110,0.375041918,0.,0.,0.375041918,6.283185307,0.;                0000151P0000097
110,0.375041918,6.283185307,0.,0.,6.283185307,0.;                0000153P0000098
510,157,1,1,165;                                                 0000155P0000099
194,159,161,2.36345036,21.488319023,163;                         0000157P0000100
116,0.,2.462570435E-15,11.090431295,0;                           0000159P0000101
123,0.,-2.220446049E-16,-1.;                                     0000161P0000102
123,1.,0.,0.;                                                    0000163P0000103
508,4,0,19,1,1,1,0,167,0,19,11,1,1,0,169,0,19,10,0,1,0,171,0,19, 0000165P0000104
11,0,1,0,173;                                                    0000165P0000105
110,0.,1.652886304E-15,0.,360.,1.652886304E-15,0.;               0000167P0000106
110,360.,0.,0.,360.,9.919017088,0.;                              0000169P0000107
110,360.,9.919017088,0.,0.,9.919017088,0.;                       0000171P0000108
110,0.,9.919017088,0.,0.,0.,0.;                                  0000173P0000109
S      1G      4D    174P    109                                        T0000001
