                                                                        S0000001
,,31HOpen CASCADE IGES processor 7.6,13HFilename.iges,                  G0000001
16HOpen CASCADE 7.6,31HOpen CASCADE IGES processor 7.6,32,308,15,308,15,G0000002
,1.,2,2HMM,1,0.01,15H20231123.131606,1E-07,15.94208,,,11,0,             G0000003
15H20231123.131606,;                                                    G0000004
     402       1       0       0       0       0       0       000000000D0000001
     402       0       0       1       1                               0D0000002
     186       2       0       0       0       0       0       000020000D0000003
     186       0       0       1       0                               0D0000004
     514       3       0       0       0       0       0       000010000D0000005
     514       0       0       1       1                               0D0000006
     510       4       0       0       0       0       0       000010000D0000007
     510       0       0       1       1                               0D0000008
     190       5       0       0       0       0       0       000010000D0000009
     190       0       0       1       1                               0D0000010
     116       6       0       0       0       0       0       000010400D0000011
     116       0       0       1       0                               0D0000012
     123       7       0       0       0       0       0       000010200D0000013
     123       0       0       1       0                               0D0000014
     123       8       0       0       0       0       0       000010200D0000015
     123       0       0       1       0                               0D0000016
     508       9       0       0       0       0       0       000010000D0000017
     508       0       0       1       1                               0D0000018
     504      10       0       0       0       0       0       000010001D0000019
     504       0       0       2       1                               0D0000020
     100      12       0       0       0       0      23       000010000D0000021
     100       0       0       1       0                               0D0000022
     124      13       0       0       0       0       0       000000000D0000023
     124       0       0       2       0                               0D0000024
     502      15       0       0       0       0       0       000010000D0000025
     502       0       0       3       1                               0D0000026
     110      18       0       0       0       0       0       000010000D0000027
     110       0       0       2       0                               0D0000028
     100      20       0       0       0       0      31       000010000D0000029
     100       0       0       1       0                               0D0000030
     124      21       0       0       0       0       0       000000000D0000031
     124       0       0       2       0                               0D0000032
     110      23       0       0       0       0       0       000010000D0000033
     110       0       0       1       0                               0D0000034
     100      24       0       0       0       0      37       000010000D0000035
     100       0       0       1       0                               0D0000036
     124      25       0       0       0       0       0       000000000D0000037
     124       0       0       2       0                               0D0000038
     100      27       0       0       0       0      41       000010000D0000039
     100       0       0       1       0                               0D0000040
     124      28       0       0       0       0       0       000000000D0000041
     124       0       0       2       0                               0D0000042
     100      30       0       0       0       0      45       000010000D0000043
     100       0       0       1       0                               0D0000044
     124      31       0       0       0       0       0       000000000D0000045
     124       0       0       2       0                               0D0000046
     100      33       0       0       0       0      49       000010000D0000047
     100       0       0       1       0                               0D0000048
     124      34       0       0       0       0       0       000000000D0000049
     124       0       0       2       0                               0D0000050
     100      36       0       0       0       0      53       000010000D0000051
     100       0       0       1       0                               0D0000052
     124      37       0       0       0       0       0       000000000D0000053
     124       0       0       2       0                               0D0000054
     510      39       0       0       0       0       0       000010000D0000055
     510       0       0       1       1                               0D0000056
     194      40       0       0       0       0       0       000010000D0000057
     194       0       0       1       1                               0D0000058
     116      41       0       0       0       0       0       000010400D0000059
     116       0       0       1       0                               0D0000060
     123      42       0       0       0       0       0       000010200D0000061
     123       0       0       1       0                               0D0000062
     123      43       0       0       0       0       0       000010200D0000063
     123       0       0       1       0                               0D0000064
     508      44       0       0       0       0       0       000010000D0000065
     508       0       0       2       1                               0D0000066
     110      46       0       0       0       0       0       000010000D0000067
     110       0       0       1       0                               0D0000068
     110      47       0       0       0       0       0       000010000D0000069
     110       0       0       1       0                               0D0000070
     110      48       0       0       0       0       0       000010000D0000071
     110       0       0       1       0                               0D0000072
     110      49       0       0       0       0       0       000010000D0000073
     110       0       0       1       0                               0D0000074
     510      50       0       0       0       0       0       000010000D0000075
     510       0       0       1       1                               0D0000076
     192      51       0       0       0       0       0       000010000D0000077
     192       0       0       1       1                               0D0000078
     116      52       0       0       0       0       0       000010400D0000079
     116       0       0       1       0                               0D0000080
     123      53       0       0       0       0       0       000010200D0000081
     123       0       0       1       0                               0D0000082
     123      54       0       0       0       0       0       000010200D0000083
     123       0       0       1       0                               0D0000084
     508      55       0       0       0       0       0       000010000D0000085
     508       0       0       2       1                               0D0000086
     110      57       0       0       0       0       0       000010000D0000087
     110       0       0       1       0                               0D0000088
     110      58       0       0       0       0       0       000010000D0000089
     110       0       0       1       0                               0D0000090
     110      59       0       0       0       0       0       000010000D0000091
     110       0       0       1       0                               0D0000092
     110      60       0       0       0       0       0       000010000D0000093
     110       0       0       1       0                               0D0000094
     510      61       0       0       0       0       0       000010000D0000095
     510       0       0       1       1                               0D0000096
     190      62       0       0       0       0       0       000010000D0000097
     190       0       0       1       1                               0D0000098
     116      63       0       0       0       0       0       000010400D0000099
     116       0       0       1       0                               0D0000100
     123      64       0       0       0       0       0       000010200D0000101
     123       0       0       1       0                               0D0000102
     123      65       0       0       0       0       0       000010200D0000103
     123       0       0       1       0                               0D0000104
     508      66       0       0       0       0       0       000010000D0000105
     508       0       0       1       1                               0D0000106
     508      67       0       0       0       0       0       000010000D0000107
     508       0       0       1       1                               0D0000108
     510      68       0       0       0       0       0       000010000D0000109
     510       0       0       1       1                               0D0000110
     120      69       0       0       0       0       0       000010000D0000111
     120       0       0       1       0                               0D0000112
     110      70       0       0       0       0       0       000010000D0000113
     110       0       0       1       0                               0D0000114
     100      71       0       0       0       0     117       000010000D0000115
     100       0       0       1       0                               0D0000116
     124      72       0       0       0       0       0       000000000D0000117
     124       0       0       2       0                               0D0000118
     508      74       0       0       0       0       0       000010000D0000119
     508       0       0       2       1                               0D0000120
     110      76       0       0       0       0       0       000010000D0000121
     110       0       0       1       0                               0D0000122
     110      77       0       0       0       0       0       000010000D0000123
     110       0       0       2       0                               0D0000124
     110      79       0       0       0       0       0       000010000D0000125
     110       0       0       1       0                               0D0000126
     110      80       0       0       0       0       0       000010000D0000127
     110       0       0       1       0                               0D0000128
     510      81       0       0       0       0       0       000010000D0000129
     510       0       0       1       1                               0D0000130
     196      82       0       0       0       0       0       000010000D0000131
     196       0       0       1       1                               0D0000132
     116      83       0       0       0       0       0       000010400D0000133
     116       0       0       1       0                               0D0000134
     123      84       0       0       0       0       0       000010200D0000135
     123       0       0       1       0                               0D0000136
     123      85       0       0       0       0       0       000010200D0000137
     123       0       0       1       0                               0D0000138
     508      86       0       0       0       0       0       000010000D0000139
     508       0       0       2       1                               0D0000140
     110      88       0       0       0       0       0       000010000D0000141
     110       0       0       1       0                               0D0000142
     110      89       0       0       0       0       0       000010000D0000143
     110       0       0       1       0                               0D0000144
     110      90       0       0       0       0       0       000010000D0000145
     110       0       0       1       0                               0D0000146
     110      91       0       0       0       0       0       000010000D0000147
     110       0       0       1       0                               0D0000148
402,1,3;                                                         0000001P0000001
186,5,1,0;                                                       0000003P0000002
514,6,7,1,55,0,75,0,95,1,109,0,129,1;                            0000005P0000003
510,9,1,1,17;                                                    0000007P0000004
190,11,13,15;                                                    0000009P0000005
116,0.,2.719248731E-15,12.246407573,0;                           0000011P0000006
123,0.,-2.220446049E-16,-1.;                                     0000013P0000007
123,1.,0.,0.;                                                    0000015P0000008
508,1,0,19,1,1,0;                                                0000017P0000009
504,9,21,25,1,25,1,27,25,1,25,2,29,25,2,25,2,33,25,2,25,3,35,25, 0000019P0000010
3,25,3,39,25,4,25,4,43,25,4,25,5,47,25,5,25,5,51,25,5,25,6;      0000019P0000011
100,0.,0.,0.,1.27,0.,1.27,0.;                                    0000021P0000012
124,1.,0.,0.,0.,0.,-1.,-2.220446049E-16,2.719248731E-15,0.,      0000023P0000013
2.220446049E-16,-1.,12.246407573;                                0000023P0000014
502,6,1.27,2.719248731E-15,12.246407573,2.54,2.201053389E-15,    0000025P0000015
9.912663224,2.54,0.,0.,6.35,0.,0.,0.995868465,3.417961061E-15,   0000025P0000016
15.393128162,7.776507175E-17,3.524958103E-15,15.875;             0000025P0000017
110,1.27,2.719248731E-15,12.246407573,2.54,2.201053389E-15,      0000027P0000018
9.912663224;                                                     0000027P0000019
100,0.,0.,0.,2.54,0.,2.54,0.;                                    0000029P0000020
124,1.,0.,0.,0.,0.,-1.,-2.220446049E-16,2.201053389E-15,0.,      0000031P0000021
2.220446049E-16,-1.,9.912663224;                                 0000031P0000022
110,2.54,2.201053389E-15,9.912663224,2.54,0.,0.;                 0000033P0000023
100,0.,0.,0.,2.54,0.,2.54,0.;                                    0000035P0000024
124,1.,0.,0.,0.,0.,-1.,-2.220446049E-16,0.,0.,2.220446049E-16,   0000037P0000025
-1.,0.;                                                          0000037P0000026
100,0.,0.,0.,6.35,0.,6.35,0.;                                    0000039P0000027
124,1.,0.,0.,0.,0.,-1.,-2.220446049E-16,0.,0.,2.220446049E-16,   0000041P0000028
-1.,0.;                                                          0000041P0000029
100,0.,0.,0.,24.8046875,0.,19.450555965,15.393128162;            0000043P0000030
124,1.,0.,0.,-18.4546875,0.,2.220446049E-16,-1.,0.,0.,1.,        0000045P0000031
2.220446049E-16,0.;                                              0000045P0000032
100,0.,0.,0.,0.995868465,0.,0.995868465,0.;                      0000047P0000033
124,1.,0.,0.,0.,0.,-1.,-2.220446049E-16,3.417961061E-15,0.,      0000049P0000034
2.220446049E-16,-1.,15.393128162;                                0000049P0000035
100,0.,0.,0.,0.995868465,0.788128162,7.776507175E-17,1.27;       0000051P0000036
124,1.,0.,0.,0.,0.,2.220446049E-16,-1.,3.242961455E-15,0.,1.,    0000053P0000037
2.220446049E-16,14.605;                                          0000053P0000038
510,57,1,1,65;                                                   0000055P0000039
194,59,61,1.27,28.554583932,63;                                  0000057P0000040
116,0.,2.719248731E-15,12.246407573,0;                           0000059P0000041
123,0.,-2.220446049E-16,-1.;                                     0000061P0000042
123,1.,0.,0.;                                                    0000063P0000043
508,4,0,19,1,1,1,0,67,0,19,2,1,1,0,69,0,19,3,0,1,0,71,0,19,2,0,  0000065P0000044
1,0,73;                                                          0000065P0000045
110,0.,0.,0.,360.,0.,0.;                                         0000067P0000046
110,360.,0.,0.,360.,2.656927302,0.;                              0000069P0000047
110,360.,2.656927302,0.,0.,2.656927302,0.;                       0000071P0000048
110,0.,2.656927302,0.,0.,0.,0.;                                  0000073P0000049
510,77,1,1,85;                                                   0000075P0000050
192,79,81,2.54,83;                                               0000077P0000051
116,0.,2.201053389E-15,9.912663224,0;                            0000079P0000052
123,0.,-2.220446049E-16,-1.;                                     0000081P0000053
123,1.,0.,0.;                                                    0000083P0000054
508,4,0,19,3,1,1,0,87,0,19,4,1,1,0,89,0,19,5,0,1,0,91,0,19,4,0,  0000085P0000055
1,0,93;                                                          0000085P0000056
110,0.,0.,0.,360.,0.,0.;                                         0000087P0000057
110,360.,0.,0.,360.,9.912663224,0.;                              0000089P0000058
110,360.,9.912663224,0.,0.,9.912663224,0.;                       0000091P0000059
110,0.,9.912663224,0.,0.,0.,0.;                                  0000093P0000060
510,97,2,1,105,107;                                              0000095P0000061
190,99,101,103;                                                  0000097P0000062
116,0.,0.,0.,0;                                                  0000099P0000063
123,0.,-2.220446049E-16,-1.;                                     0000101P0000064
123,1.,0.,0.;                                                    0000103P0000065
508,1,0,19,6,1,0;                                                0000105P0000066
508,1,0,19,5,0,0;                                                0000107P0000067
510,111,1,1,119;                                                 0000109P0000068
120,113,115,0.,6.283185307;                                      0000111P0000069
110,0.,0.,0.,0.,2.220446049E-16,1.;                              0000113P0000070
100,0.,0.,0.,24.8046875,0.,19.450555965,15.393128162;            0000115P0000071
124,1.,0.,0.,-18.4546875,0.,2.220446049E-16,-1.,0.,0.,1.,        0000117P0000072
2.220446049E-16,0.;                                              0000117P0000073
508,4,0,19,6,1,1,0,121,0,19,7,1,1,0,123,0,19,8,0,1,0,125,0,19,7, 0000119P0000074
0,1,0,127;                                                       0000119P0000075
110,0.,6.283185307,0.,-1.395147399E-15,0.,0.;                    0000121P0000076
110,-1.395147399E-15,1.776356839E-15,0.,0.669473675,             0000123P0000077
1.925009857E-15,0.;                                              0000123P0000078
110,0.669473675,0.,0.,0.669473675,6.283185307,0.;                0000125P0000079
110,0.669473675,6.283185307,0.,0.,6.283185307,0.;                0000127P0000080
510,131,1,1,139;                                                 0000129P0000081
196,133,1.27,135,137;                                            0000131P0000082
116,0.,3.242961455E-15,14.605,0;                                 0000133P0000083
123,0.,2.220446049E-16,1.;                                       0000135P0000084
123,1.,0.,0.;                                                    0000137P0000085
508,4,0,19,8,0,1,0,141,0,19,9,1,1,0,143,1,25,6,1,1,0,145,0,19,9, 0000139P0000086
0,1,0,147;                                                       0000139P0000087
110,-360.,38.358016052,0.,0.,38.358016052,0.;                    0000141P0000088
110,0.,38.358016052,0.,0.,90.,0.;                                0000143P0000089
110,0.,90.,0.,-360.,90.,0.;                                      0000145P0000090
110,-360.,90.,0.,-360.,38.358016052,0.;                          0000147P0000091
S      1G      4D    148P     91                                        T0000001
